<svg id="Слой_1" data-name="Слой 1" xmlns="http://www.w3.org/2000/svg" viewBox="0 0 18.13 9.86"><defs><style>.cls-1{fill:#ebeef0;}.cls-2{fill:#d0d6db;}</style></defs><title>cloud</title><path class="cls-1" d="M18.29,7.1a2.91,2.91,0,0,1-2.72,2.73v0H3.33A3,3,0,0,1,.16,7.1,2.91,2.91,0,0,1,2.88,4.37h0v0A2.55,2.55,0,0,1,2.9,4,4.12,4.12,0,0,1,4.51,1.13,5.41,5.41,0,0,1,7.86,0a5.29,5.29,0,0,1,3.88,1.61,4,4,0,0,1,.47.61,1.93,1.93,0,0,1,.4-.15A2.61,2.61,0,0,1,13.3,2a2.14,2.14,0,0,1,2.27,2,1.86,1.86,0,0,1-.05.42l.32,0A2.88,2.88,0,0,1,18.29,7.1Z" transform="translate(-0.16)"/><path class="cls-2" d="M15.84,4.41l-.32,0a1.86,1.86,0,0,0,.05-.42,2,2,0,0,0-1.51-1.86,3.91,3.91,0,0,1,.15,1.08A4.22,4.22,0,0,1,12,6.76a3.92,3.92,0,0,0,.85-2.42,3.83,3.83,0,0,0-.64-2.12c0-.06-.07-.11-.1-.16s-.24-.3-.37-.45l-.2-.19h0c-.11-.11-.23-.21-.35-.31h0l0,0A3.89,3.89,0,0,0,10.75.8a4.63,4.63,0,0,0-.7-.36L9.87.37h0A4,4,0,0,1,11,3.16a4.45,4.45,0,0,1-3.4,4.11,5.93,5.93,0,0,1-1.59.22q-.3,0-.6,0A5.38,5.38,0,0,1,4,7.13,5,5,0,0,0,5.16,8,2.83,2.83,0,0,1,2.88,9.07,2.6,2.6,0,0,1,.17,6.9a1.27,1.27,0,0,0,0,.2A3,3,0,0,0,3.33,9.86H15.57v0A2.91,2.91,0,0,0,18.29,7.1,2.88,2.88,0,0,0,15.84,4.41Z" transform="translate(-0.16)"/></svg>