<svg id="Слой_1" data-name="Слой 1" xmlns="http://www.w3.org/2000/svg" xmlns:xlink="http://www.w3.org/1999/xlink" viewBox="0 0 1800.5 450"><defs><style>.cls-1{fill:none;}.cls-2{fill:#fff;}.cls-3{fill:url(#linear-gradient);}.cls-4{opacity:0.1;fill:url(#New_Pattern_2);}</style><linearGradient id="linear-gradient" y1="225" x2="1800" y2="225" gradientUnits="userSpaceOnUse"><stop offset="0" stop-color="#dfb752"/><stop offset="0.5" stop-color="#dfb752"/><stop offset="1" stop-color="#dfb752"/></linearGradient><pattern id="New_Pattern_2" data-name="New Pattern 2" width="1071.04" height="1164.52" patternTransform="translate(-3256.27 -837.71)" patternUnits="userSpaceOnUse" viewBox="0 0 1071.04 1164.52"><rect class="cls-1" width="1071.04" height="1164.52"/><path class="cls-2" d="M1081.69,886.05c-5,32.26-6.68,34-25.65,26.71,19,7.26,21.56,10,40.53,42.22C1077.6,922.71,1076.65,918.31,1081.69,886.05Z"/><path class="cls-2" d="M1092.47,776.39c-5,32.26-6.68,34-25.65,26.71,19,7.26,21.56,9.95,40.53,42.22C1088.38,813.05,1087.43,808.65,1092.47,776.39Z"/><path class="cls-2" d="M1047.53,682.64c5-32.27,6.68-34,25.65-26.72-19-7.26-21.56-9.95-40.53-42.22C1051.62,646,1052.57,650.37,1047.53,682.64Z"/><path class="cls-2" d="M1025.87,683.16c31,5.25,32.61,7,25.65,26.72,7-19.76,9.55-22.46,40.53-42.21C1061.07,687.42,1056.85,688.41,1025.87,683.16Z"/><path class="cls-2" d="M992.17,655.69c26.83,17.69,26.83,20.1,0,37.79,26.83-17.69,30.49-17.69,57.32,0Z"/><path class="cls-2" d="M1014.06,606.54c-5,32.26-6.68,34-25.65,26.71,19,7.26,21.55,10,40.52,42.22C1010,643.2,1009,638.8,1014.06,606.54Z"/><path class="cls-2" d="M1062.73,609c-31-5.26-32.61-7-25.65-26.72-7,19.76-9.55,22.45-40.53,42.21C1027.53,604.71,1031.75,603.72,1062.73,609Z"/><path class="cls-2" d="M1025.65,734.69c-5,32.26-6.68,34-25.65,26.71,19,7.26,21.56,10,40.53,42.22C1021.56,771.35,1020.61,767,1025.65,734.69Z"/><path class="cls-2" d="M1042.55,718.64c-31-5.26-32.61-7-25.65-26.72-7,19.76-9.55,22.45-40.52,42.21C1007.35,714.37,1011.58,713.38,1042.55,718.64Z"/><path class="cls-2" d="M1081,761.63c-26.83-17.69-26.83-20.1,0-37.79-26.83,17.69-30.49,17.69-57.31,0Z"/><path class="cls-2" d="M1059.13,810.78c5-32.26,6.68-34,25.65-26.71-19-7.26-21.56-10-40.53-42.22C1063.22,774.12,1064.17,778.52,1059.13,810.78Z"/><path class="cls-2" d="M1016.48,810c31,5.25,32.61,7,25.65,26.71,7-19.76,9.55-22.45,40.52-42.21C1051.68,814.26,1047.45,815.25,1016.48,810Z"/><path class="cls-2" d="M1054.4,888.33c-31-5.25-32.61-7-25.65-26.71-7,19.76-9.55,22.45-40.52,42.21C1019.2,884.07,1023.43,883.08,1054.4,888.33Z"/><path class="cls-2" d="M1043.1,860.89c-26.83-17.69-26.83-20.1,0-37.79-26.83,17.69-30.49,17.69-57.31,0Z"/><path class="cls-2" d="M1058.4,892.4c5-32.27,6.68-34,25.65-26.72-19-7.25-21.56-9.95-40.53-42.21C1062.49,855.73,1063.44,860.13,1058.4,892.4Z"/><path class="cls-2" d="M1028.54,946c17-28,19.29-28,36.27,0-17-28-17-31.76,0-59.7Z"/><path class="cls-2" d="M981.35,923.2c31,5.26,32.61,7,25.65,26.72,7-19.76,9.55-22.45,40.52-42.21C1016.55,927.47,1012.32,928.46,981.35,923.2Z"/><path class="cls-2" d="M983.69,872.5c-5,32.27-6.68,34-25.65,26.72,19,7.26,21.56,9.95,40.53,42.22C979.6,909.17,978.65,904.77,983.69,872.5Z"/><path class="cls-2" d="M994.47,762.85c-5,32.26-6.68,34-25.65,26.71,19,7.26,21.56,10,40.53,42.22C990.38,799.51,989.43,795.11,994.47,762.85Z"/><path class="cls-2" d="M1018.43,1156.86c5.05-32.26,6.68-34,25.65-26.72-19-7.25-21.55-9.94-40.52-42.21C1022.53,1120.2,1023.48,1124.6,1018.43,1156.86Z"/><path class="cls-2" d="M1001.53,1172.91c31,5.25,32.61,7,25.65,26.72,7-19.76,9.55-22.45,40.52-42.21C1036.73,1177.18,1032.51,1178.16,1001.53,1172.91Z"/><path class="cls-2" d="M963.08,1129.92c26.82,17.68,26.82,20.1,0,37.78,26.82-17.68,30.48-17.68,57.31,0Z"/><path class="cls-2" d="M985,1080.76c-5,32.27-6.68,34-25.65,26.72,19,7.25,21.55,10,40.52,42.21C980.86,1117.43,979.92,1113,985,1080.76Z"/><path class="cls-2" d="M1027.61,1081.55c-31-5.25-32.62-7-25.65-26.72-7,19.76-9.55,22.46-40.53,42.22C992.41,1077.29,996.63,1076.3,1027.61,1081.55Z"/><path class="cls-2" d="M989.68,1003.21c31,5.26,32.61,7,25.65,26.72,7-19.76,9.55-22.45,40.53-42.21C1024.88,1007.48,1020.66,1008.47,989.68,1003.21Z"/><path class="cls-2" d="M1001,1030.66c26.83,17.69,26.83,20.1,0,37.78,26.83-17.68,30.49-17.68,57.32,0Z"/><path class="cls-2" d="M985.69,999.15c-5.05,32.26-6.68,34-25.65,26.72,19,7.25,21.55,9.94,40.52,42.21C981.59,1035.81,980.64,1031.41,985.69,999.15Z"/><path class="cls-2" d="M1015.55,945.55c-17,27.94-19.3,27.94-36.28,0,17,27.94,17,31.75,0,59.7Z"/><path class="cls-2" d="M1062.74,968.34c-31-5.25-32.62-7-25.65-26.71-7,19.76-9.55,22.45-40.53,42.21C1027.54,964.08,1031.76,963.09,1062.74,968.34Z"/><path class="cls-2" d="M1060.39,1019c5-32.26,6.68-34,25.65-26.71-19-7.26-21.55-10-40.52-42.22C1064.49,982.38,1065.44,986.78,1060.39,1019Z"/><path class="cls-2" d="M1049.61,1128.7c5.05-32.26,6.68-34,25.65-26.72-19-7.25-21.55-9.94-40.52-42.21C1053.71,1092,1054.66,1096.44,1049.61,1128.7Z"/><path class="cls-2" d="M1061.08,1143.46c26.82,17.69,26.82,20.1,0,37.78,26.82-17.68,30.48-17.68,57.31,0Z"/><path class="cls-2" d="M1083,1094.3c-5,32.27-6.68,34-25.65,26.72,19,7.25,21.55,10,40.52,42.21C1078.86,1131,1077.92,1126.57,1083,1094.3Z"/><path class="cls-2" d="M1125.61,1095.09c-31-5.25-32.62-6.95-25.65-26.71-7,19.76-9.55,22.45-40.53,42.21C1090.41,1090.83,1094.63,1089.84,1125.61,1095.09Z"/><path class="cls-2" d="M1083.69,1012.69c-5,32.26-6.68,34-25.65,26.72,19,7.25,21.55,9.94,40.52,42.21C1079.59,1049.35,1078.64,1045,1083.69,1012.69Z"/><path class="cls-2" d="M788.52,696.18c5-32.27,6.68-34,25.65-26.72-19-7.25-21.56-10-40.53-42.21C792.61,659.51,793.56,663.91,788.52,696.18Z"/><path class="cls-2" d="M766.86,696.7c31,5.26,32.61,7,25.65,26.72,7-19.76,9.55-22.45,40.52-42.21C802.06,701,797.83,702,766.86,696.7Z"/><path class="cls-2" d="M733.16,669.23c26.83,17.69,26.83,20.1,0,37.79,26.83-17.69,30.48-17.69,57.31,0Z"/><path class="cls-2" d="M755,620.08c-5,32.26-6.68,34-25.65,26.71,19,7.26,21.56,10,40.53,42.22C751,656.74,750,652.34,755,620.08Z"/><path class="cls-2" d="M803.71,622.52c-31-5.25-32.61-7-25.65-26.72-7,19.76-9.55,22.45-40.52,42.21C768.51,618.25,772.74,617.27,803.71,622.52Z"/><path class="cls-2" d="M766.64,748.23c-5,32.26-6.68,34-25.65,26.71,19,7.26,21.55,9.95,40.52,42.22C762.54,784.89,761.59,780.49,766.64,748.23Z"/><path class="cls-2" d="M783.54,732.18c-31-5.26-32.61-7-25.65-26.72-7,19.76-9.55,22.45-40.53,42.21C748.34,727.91,752.56,726.92,783.54,732.18Z"/><path class="cls-2" d="M822,775.17c-26.82-17.69-26.82-20.1,0-37.78-26.82,17.68-30.48,17.68-57.31,0Z"/><path class="cls-2" d="M800.11,824.33c5-32.27,6.68-34,25.65-26.72-19-7.25-21.56-10-40.52-42.21C804.2,787.66,805.15,792.06,800.11,824.33Z"/><path class="cls-2" d="M757.46,823.54c31,5.25,32.62,7,25.65,26.71,7-19.76,9.55-22.45,40.53-42.21C792.66,827.8,788.44,828.79,757.46,823.54Z"/><path class="cls-2" d="M795.39,901.88c-31-5.26-32.61-7-25.65-26.72-7,19.76-9.55,22.45-40.53,42.21C760.19,897.61,764.41,896.62,795.39,901.88Z"/><path class="cls-2" d="M784.09,874.43c-26.83-17.69-26.83-20.1,0-37.79-26.83,17.69-30.49,17.69-57.32,0Z"/><path class="cls-2" d="M799.38,905.94c5-32.26,6.68-34,25.65-26.72-19-7.25-21.55-9.94-40.52-42.21C803.48,869.28,804.43,873.68,799.38,905.94Z"/><path class="cls-2" d="M769.52,959.54c17-27.95,19.3-27.95,36.28,0-17-27.95-17-31.76,0-59.7Z"/><path class="cls-2" d="M722.33,936.74c31,5.26,32.62,7,25.65,26.72,7-19.76,9.55-22.45,40.53-42.21C757.53,941,753.31,942,722.33,936.74Z"/><path class="cls-2" d="M724.68,886.05c-5,32.26-6.68,34-25.65,26.71,19,7.26,21.55,10,40.52,42.22C720.58,922.71,719.63,918.31,724.68,886.05Z"/><path class="cls-2" d="M735.46,776.39c-5.05,32.26-6.68,34-25.65,26.71,19,7.26,21.55,9.95,40.52,42.22C731.36,813.05,730.41,808.65,735.46,776.39Z"/><path class="cls-2" d="M690.52,682.64c5-32.27,6.68-34,25.65-26.72-19-7.26-21.56-9.95-40.53-42.22C694.61,646,695.56,650.37,690.52,682.64Z"/><path class="cls-2" d="M668.86,683.16c31,5.25,32.61,7,25.65,26.72,7-19.76,9.55-22.46,40.52-42.21C704.06,687.42,699.83,688.41,668.86,683.16Z"/><path class="cls-2" d="M635.16,655.69c26.83,17.69,26.83,20.1,0,37.79,26.83-17.69,30.48-17.69,57.31,0Z"/><path class="cls-2" d="M657,606.54c-5,32.26-6.68,34-25.65,26.71,19,7.26,21.56,10,40.53,42.22C653,643.2,652,638.8,657,606.54Z"/><path class="cls-2" d="M705.71,609c-31-5.26-32.61-7-25.65-26.72-7,19.76-9.55,22.45-40.52,42.21C670.51,604.71,674.74,603.72,705.71,609Z"/><path class="cls-2" d="M668.64,734.69c-5,32.26-6.68,34-25.65,26.71,19,7.26,21.55,10,40.52,42.22C664.54,771.35,663.59,767,668.64,734.69Z"/><path class="cls-2" d="M685.54,718.64c-31-5.26-32.61-7-25.65-26.72-7,19.76-9.55,22.45-40.53,42.21C650.34,714.37,654.56,713.38,685.54,718.64Z"/><path class="cls-2" d="M724,761.63c-26.82-17.69-26.82-20.1,0-37.79-26.82,17.69-30.48,17.69-57.31,0Z"/><path class="cls-2" d="M702.11,810.78c5-32.26,6.68-34,25.65-26.71-19-7.26-21.56-10-40.52-42.22C706.2,774.12,707.15,778.52,702.11,810.78Z"/><path class="cls-2" d="M659.46,810c31,5.25,32.62,7,25.65,26.71,7-19.76,9.55-22.45,40.53-42.21C694.66,814.26,690.44,815.25,659.46,810Z"/><path class="cls-2" d="M697.39,888.33c-31-5.25-32.61-7-25.65-26.71-7,19.76-9.55,22.45-40.53,42.21C662.19,884.07,666.41,883.08,697.39,888.33Z"/><path class="cls-2" d="M686.09,860.89c-26.83-17.69-26.83-20.1,0-37.79-26.83,17.69-30.49,17.69-57.32,0Z"/><path class="cls-2" d="M701.38,892.4c5-32.27,6.68-34,25.65-26.72-19-7.25-21.55-9.95-40.52-42.21C705.48,855.73,706.43,860.13,701.38,892.4Z"/><path class="cls-2" d="M671.52,946c17-28,19.3-28,36.28,0-17-28-17-31.76,0-59.7Z"/><path class="cls-2" d="M624.33,923.2c31,5.26,32.62,7,25.65,26.72,7-19.76,9.55-22.45,40.53-42.21C659.53,927.47,655.31,928.46,624.33,923.2Z"/><path class="cls-2" d="M626.68,872.5c-5,32.27-6.68,34-25.65,26.72,19,7.26,21.55,9.95,40.52,42.22C622.58,909.17,621.63,904.77,626.68,872.5Z"/><path class="cls-2" d="M637.46,762.85c-5.05,32.26-6.68,34-25.65,26.71,19,7.26,21.55,10,40.52,42.22C633.36,799.51,632.41,795.11,637.46,762.85Z"/><path class="cls-2" d="M661.42,1156.86c5-32.26,6.68-34,25.65-26.72-19-7.25-21.56-9.94-40.53-42.21C665.51,1120.2,666.46,1124.6,661.42,1156.86Z"/><path class="cls-2" d="M644.52,1172.91c31,5.25,32.61,7,25.64,26.72,7-19.76,9.56-22.45,40.53-42.21C679.72,1177.18,675.49,1178.16,644.52,1172.91Z"/><path class="cls-2" d="M606.06,1129.92c26.83,17.68,26.83,20.1,0,37.78,26.83-17.68,30.49-17.68,57.31,0Z"/><path class="cls-2" d="M627.94,1080.76c-5,32.27-6.68,34-25.65,26.72,19,7.25,21.56,10,40.53,42.21C623.85,1117.43,622.9,1113,627.94,1080.76Z"/><path class="cls-2" d="M670.59,1081.55c-31-5.25-32.61-7-25.65-26.72-7,19.76-9.55,22.46-40.52,42.22C635.39,1077.29,639.62,1076.3,670.59,1081.55Z"/><path class="cls-2" d="M632.67,1003.21c31,5.26,32.61,7,25.65,26.72,7-19.76,9.55-22.45,40.52-42.21C667.87,1007.48,663.64,1008.47,632.67,1003.21Z"/><path class="cls-2" d="M644,1030.66c26.83,17.69,26.83,20.1,0,37.78,26.83-17.68,30.49-17.68,57.31,0Z"/><path class="cls-2" d="M628.67,999.15c-5,32.26-6.68,34-25.65,26.72,19,7.25,21.56,9.94,40.53,42.21C624.58,1035.81,623.63,1031.41,628.67,999.15Z"/><path class="cls-2" d="M658.53,945.55c-17,27.94-19.29,27.94-36.27,0,17,27.94,17,31.75,0,59.7Z"/><path class="cls-2" d="M705.72,968.34c-31-5.25-32.61-7-25.65-26.71-7,19.76-9.55,22.45-40.52,42.21C670.52,964.08,674.75,963.09,705.72,968.34Z"/><path class="cls-2" d="M703.38,1019c5-32.26,6.68-34,25.65-26.71-19-7.26-21.56-10-40.53-42.22C707.47,982.38,708.42,986.78,703.38,1019Z"/><path class="cls-2" d="M692.6,1128.7c5-32.26,6.68-34,25.65-26.72-19-7.25-21.56-9.94-40.53-42.21C696.69,1092,697.64,1096.44,692.6,1128.7Z"/><path class="cls-2" d="M759.42,1170.4c5-32.26,6.68-34,25.65-26.71-19-7.26-21.56-10-40.53-42.22C763.51,1133.74,764.46,1138.14,759.42,1170.4Z"/><path class="cls-2" d="M704.06,1143.46c26.83,17.69,26.83,20.1,0,37.78,26.83-17.68,30.49-17.68,57.31,0Z"/><path class="cls-2" d="M725.94,1094.3c-5,32.27-6.68,34-25.65,26.72,19,7.25,21.56,10,40.53,42.21C721.85,1131,720.9,1126.57,725.94,1094.3Z"/><path class="cls-2" d="M768.59,1095.09c-31-5.25-32.61-6.95-25.65-26.71-7,19.76-9.55,22.45-40.52,42.21C733.39,1090.83,737.62,1089.84,768.59,1095.09Z"/><path class="cls-2" d="M730.67,1016.75c31,5.26,32.61,7,25.65,26.72,7-19.76,9.55-22.45,40.52-42.21C765.87,1021,761.64,1022,730.67,1016.75Z"/><path class="cls-2" d="M742,1044.2c26.83,17.69,26.83,20.1,0,37.79,26.83-17.69,30.49-17.69,57.31,0Z"/><path class="cls-2" d="M726.67,1012.69c-5,32.26-6.68,34-25.65,26.72,19,7.25,21.56,9.94,40.53,42.21C722.58,1049.35,721.63,1045,726.67,1012.69Z"/><path class="cls-2" d="M756.53,959.09c-17,27.95-19.29,27.95-36.27,0,17,27.95,17,31.76,0,59.7Z"/><path class="cls-2" d="M803.72,981.89c-31-5.26-32.61-7-25.65-26.72-7,19.76-9.55,22.45-40.52,42.21C768.52,977.62,772.75,976.63,803.72,981.89Z"/><path class="cls-2" d="M801.38,1032.58c5-32.26,6.68-34,25.65-26.71-19-7.26-21.56-10-40.53-42.22C805.47,995.92,806.42,1000.32,801.38,1032.58Z"/><path class="cls-2" d="M790.6,1142.24c5-32.26,6.68-34,25.65-26.71-19-7.26-21.56-10-40.53-42.22C794.69,1105.58,795.64,1110,790.6,1142.24Z"/><path class="cls-2" d="M431.5,696.18c5.05-32.27,6.68-34,25.65-26.72-19-7.25-21.55-10-40.52-42.21C435.6,659.51,436.55,663.91,431.5,696.18Z"/><path class="cls-2" d="M409.84,696.7c31,5.26,32.62,7,25.65,26.72,7-19.76,9.55-22.45,40.53-42.21C445,701,440.82,702,409.84,696.7Z"/><path class="cls-2" d="M376.15,669.23c26.82,17.69,26.82,20.1,0,37.79,26.82-17.69,30.48-17.69,57.31,0Z"/><path class="cls-2" d="M398,620.08c-5,32.26-6.68,34-25.65,26.71,19,7.26,21.55,10,40.52,42.22C393.93,656.74,393,652.34,398,620.08Z"/><path class="cls-2" d="M446.7,622.52c-31-5.25-32.61-7-25.65-26.72-7,19.76-9.55,22.45-40.53,42.21C411.5,618.25,415.72,617.27,446.7,622.52Z"/><path class="cls-2" d="M409.62,748.23c-5,32.26-6.68,34-25.65,26.71,19,7.26,21.56,9.95,40.53,42.22C405.53,784.89,404.58,780.49,409.62,748.23Z"/><path class="cls-2" d="M426.53,732.18c-31-5.26-32.62-7-25.65-26.72-7,19.76-9.55,22.45-40.53,42.21C391.33,727.91,395.55,726.92,426.53,732.18Z"/><path class="cls-2" d="M465,775.17c-26.83-17.69-26.83-20.1,0-37.78-26.83,17.68-30.48,17.68-57.31,0Z"/><path class="cls-2" d="M443.1,824.33c5-32.27,6.68-34,25.65-26.72-19-7.25-21.56-10-40.53-42.21C447.19,787.66,448.14,792.06,443.1,824.33Z"/><path class="cls-2" d="M400.45,823.54c31,5.25,32.61,7,25.65,26.71,7-19.76,9.55-22.45,40.53-42.21C435.65,827.8,431.43,828.79,400.45,823.54Z"/><path class="cls-2" d="M438.38,901.88c-31-5.26-32.62-7-25.65-26.72-7,19.76-9.55,22.45-40.53,42.21C403.18,897.61,407.4,896.62,438.38,901.88Z"/><path class="cls-2" d="M427.07,874.43c-26.83-17.69-26.83-20.1,0-37.79-26.83,17.69-30.48,17.69-57.31,0Z"/><path class="cls-2" d="M442.37,905.94c5-32.26,6.68-34,25.65-26.72-19-7.25-21.56-9.94-40.53-42.21C446.46,869.28,447.41,873.68,442.37,905.94Z"/><path class="cls-2" d="M412.51,959.54c17-27.95,19.29-27.95,36.27,0-17-27.95-17-31.76,0-59.7Z"/><path class="cls-2" d="M365.32,936.74c31,5.26,32.61,7,25.65,26.72,7-19.76,9.55-22.45,40.52-42.21C400.52,941,396.29,942,365.32,936.74Z"/><path class="cls-2" d="M367.66,886.05c-5,32.26-6.68,34-25.65,26.71,19,7.26,21.56,10,40.53,42.22C363.57,922.71,362.62,918.31,367.66,886.05Z"/><path class="cls-2" d="M378.44,776.39c-5,32.26-6.68,34-25.65,26.71,19,7.26,21.56,9.95,40.53,42.22C374.35,813.05,373.4,808.65,378.44,776.39Z"/><path class="cls-2" d="M333.5,682.64c5.05-32.27,6.68-34,25.65-26.72-19-7.26-21.55-9.95-40.52-42.22C337.6,646,338.55,650.37,333.5,682.64Z"/><path class="cls-2" d="M311.84,683.16c31,5.25,32.62,7,25.65,26.72,7-19.76,9.55-22.46,40.53-42.21C347,687.42,342.82,688.41,311.84,683.16Z"/><path class="cls-2" d="M278.15,655.69c26.82,17.69,26.82,20.1,0,37.79,26.82-17.69,30.48-17.69,57.31,0Z"/><path class="cls-2" d="M300,606.54c-5,32.26-6.68,34-25.65,26.71,19,7.26,21.55,10,40.52,42.22C295.93,643.2,295,638.8,300,606.54Z"/><path class="cls-2" d="M348.7,609c-31-5.26-32.61-7-25.65-26.72-7,19.76-9.55,22.45-40.53,42.21C313.5,604.71,317.72,603.72,348.7,609Z"/><path class="cls-2" d="M311.62,734.69c-5,32.26-6.68,34-25.65,26.71,19,7.26,21.56,10,40.53,42.22C307.53,771.35,306.58,767,311.62,734.69Z"/><path class="cls-2" d="M328.53,718.64c-31-5.26-32.62-7-25.65-26.72-7,19.76-9.55,22.45-40.53,42.21C293.33,714.37,297.55,713.38,328.53,718.64Z"/><path class="cls-2" d="M367,761.63c-26.83-17.69-26.83-20.1,0-37.79-26.83,17.69-30.48,17.69-57.31,0Z"/><path class="cls-2" d="M345.1,810.78c5-32.26,6.68-34,25.65-26.71-19-7.26-21.56-10-40.53-42.22C349.19,774.12,350.14,778.52,345.1,810.78Z"/><path class="cls-2" d="M302.45,810c31,5.25,32.61,7,25.65,26.71,7-19.76,9.55-22.45,40.53-42.21C337.65,814.26,333.43,815.25,302.45,810Z"/><path class="cls-2" d="M340.38,888.33c-31-5.25-32.62-7-25.65-26.71-7,19.76-9.55,22.45-40.53,42.21C305.18,884.07,309.4,883.08,340.38,888.33Z"/><path class="cls-2" d="M329.07,860.89c-26.83-17.69-26.83-20.1,0-37.79-26.83,17.69-30.48,17.69-57.31,0Z"/><path class="cls-2" d="M344.37,892.4c5-32.27,6.68-34,25.65-26.72-19-7.25-21.56-9.95-40.53-42.21C348.46,855.73,349.41,860.13,344.37,892.4Z"/><path class="cls-2" d="M314.51,946c17-28,19.29-28,36.27,0-17-28-17-31.76,0-59.7Z"/><path class="cls-2" d="M267.32,923.2c31,5.26,32.61,7,25.65,26.72,7-19.76,9.55-22.45,40.52-42.21C302.52,927.47,298.29,928.46,267.32,923.2Z"/><path class="cls-2" d="M269.66,872.5c-5,32.27-6.68,34-25.65,26.72,19,7.26,21.56,9.95,40.53,42.22C265.57,909.17,264.62,904.77,269.66,872.5Z"/><path class="cls-2" d="M280.44,762.85c-5,32.26-6.68,34-25.65,26.71,19,7.26,21.56,10,40.53,42.22C276.35,799.51,275.4,795.11,280.44,762.85Z"/><path class="cls-2" d="M304.41,1156.86c5-32.26,6.67-34,25.64-26.72-19-7.25-21.55-9.94-40.52-42.21C308.5,1120.2,309.45,1124.6,304.41,1156.86Z"/><path class="cls-2" d="M287.5,1172.91c31,5.25,32.61,7,25.65,26.72,7-19.76,9.55-22.45,40.53-42.21C322.7,1177.18,318.48,1178.16,287.5,1172.91Z"/><path class="cls-2" d="M249.05,1129.92c26.82,17.68,26.82,20.1,0,37.78,26.82-17.68,30.48-17.68,57.31,0Z"/><path class="cls-2" d="M270.93,1080.76c-5,32.27-6.68,34-25.65,26.72,19,7.25,21.56,10,40.53,42.21C266.84,1117.43,265.89,1113,270.93,1080.76Z"/><path class="cls-2" d="M313.58,1081.55c-31-5.25-32.62-7-25.65-26.72-7,19.76-9.55,22.46-40.53,42.22C278.38,1077.29,282.6,1076.3,313.58,1081.55Z"/><path class="cls-2" d="M275.65,1003.21c31,5.26,32.62,7,25.65,26.72,7-19.76,9.55-22.45,40.53-42.21C310.85,1007.48,306.63,1008.47,275.65,1003.21Z"/><path class="cls-2" d="M287,1030.66c26.82,17.69,26.82,20.1,0,37.78,26.82-17.68,30.48-17.68,57.31,0Z"/><path class="cls-2" d="M271.66,999.15c-5,32.26-6.68,34-25.65,26.72,19,7.25,21.56,9.94,40.53,42.21C267.57,1035.81,266.62,1031.41,271.66,999.15Z"/><path class="cls-2" d="M301.52,945.55c-17,27.94-19.3,27.94-36.28,0,17,27.94,17,31.75,0,59.7Z"/><path class="cls-2" d="M348.71,968.34c-31-5.25-32.61-7-25.65-26.71-7,19.76-9.55,22.45-40.53,42.21C313.51,964.08,317.73,963.09,348.71,968.34Z"/><path class="cls-2" d="M346.37,1019c5-32.26,6.68-34,25.65-26.71-19-7.26-21.56-10-40.53-42.22C350.46,982.38,351.41,986.78,346.37,1019Z"/><path class="cls-2" d="M335.59,1128.7c5-32.26,6.67-34,25.64-26.72-19-7.25-21.55-9.94-40.52-42.21C339.68,1092,340.63,1096.44,335.59,1128.7Z"/><path class="cls-2" d="M402.41,1170.4c5-32.26,6.67-34,25.64-26.71-19-7.26-21.55-10-40.52-42.22C406.5,1133.74,407.45,1138.14,402.41,1170.4Z"/><path class="cls-2" d="M347.05,1143.46c26.82,17.69,26.82,20.1,0,37.78,26.82-17.68,30.48-17.68,57.31,0Z"/><path class="cls-2" d="M368.93,1094.3c-5,32.27-6.68,34-25.65,26.72,19,7.25,21.56,10,40.53,42.21C364.84,1131,363.89,1126.57,368.93,1094.3Z"/><path class="cls-2" d="M411.58,1095.09c-31-5.25-32.62-6.95-25.65-26.71-7,19.76-9.55,22.45-40.53,42.21C376.38,1090.83,380.6,1089.84,411.58,1095.09Z"/><path class="cls-2" d="M373.65,1016.75c31,5.26,32.62,7,25.65,26.72,7-19.76,9.55-22.45,40.53-42.21C408.85,1021,404.63,1022,373.65,1016.75Z"/><path class="cls-2" d="M385,1044.2c26.82,17.69,26.82,20.1,0,37.79,26.82-17.69,30.48-17.69,57.31,0Z"/><path class="cls-2" d="M369.66,1012.69c-5,32.26-6.68,34-25.65,26.72,19,7.25,21.56,9.94,40.53,42.21C365.57,1049.35,364.62,1045,369.66,1012.69Z"/><path class="cls-2" d="M399.52,959.09c-17,27.95-19.3,27.95-36.28,0,17,27.95,17,31.76,0,59.7Z"/><path class="cls-2" d="M446.71,981.89c-31-5.26-32.61-7-25.65-26.72-7,19.76-9.55,22.45-40.53,42.21C411.51,977.62,415.73,976.63,446.71,981.89Z"/><path class="cls-2" d="M444.37,1032.58c5-32.26,6.68-34,25.65-26.71-19-7.26-21.56-10-40.53-42.22C448.46,995.92,449.41,1000.32,444.37,1032.58Z"/><path class="cls-2" d="M433.59,1142.24c5-32.26,6.67-34,25.64-26.71-19-7.26-21.55-10-40.52-42.22C437.68,1105.58,438.63,1110,433.59,1142.24Z"/><path class="cls-2" d="M74.49,696.18c5-32.27,6.68-34,25.65-26.72-19-7.25-21.56-10-40.53-42.21C78.58,659.51,79.53,663.91,74.49,696.18Z"/><path class="cls-2" d="M52.83,696.7c31,5.26,32.61,7,25.65,26.72C85.44,703.66,88,701,119,681.21,88,701,83.8,702,52.83,696.7Z"/><path class="cls-2" d="M19.13,669.23C46,686.92,46,689.33,19.13,707c26.83-17.69,30.49-17.69,57.31,0Z"/><path class="cls-2" d="M41,620.08c-5,32.26-6.68,34-25.65,26.71,19,7.26,21.56,10,40.53,42.22C36.92,656.74,36,652.34,41,620.08Z"/><path class="cls-2" d="M89.69,622.52c-31-5.25-32.62-7-25.65-26.72-7,19.76-9.55,22.45-40.53,42.21C54.49,618.25,58.71,617.27,89.69,622.52Z"/><path class="cls-2" d="M52.61,748.23c-5,32.26-6.68,34-25.65,26.71,19,7.26,21.56,9.95,40.53,42.22C48.52,784.89,47.57,780.49,52.61,748.23Z"/><path class="cls-2" d="M69.51,732.18c-31-5.26-32.61-7-25.65-26.72-7,19.76-9.55,22.45-40.52,42.21C34.31,727.91,38.54,726.92,69.51,732.18Z"/><path class="cls-2" d="M108,775.17c-26.83-17.69-26.83-20.1,0-37.78-26.83,17.68-30.49,17.68-57.32,0Z"/><path class="cls-2" d="M86.08,824.33c5-32.27,6.68-34,25.65-26.72-19-7.25-21.55-10-40.52-42.21C90.18,787.66,91.13,792.06,86.08,824.33Z"/><path class="cls-2" d="M43.44,823.54c31,5.25,32.61,7,25.65,26.71,7-19.76,9.55-22.45,40.52-42.21C78.64,827.8,74.41,828.79,43.44,823.54Z"/><path class="cls-2" d="M81.36,901.88c-31-5.26-32.61-7-25.65-26.72-7,19.76-9.55,22.45-40.52,42.21C46.16,897.61,50.39,896.62,81.36,901.88Z"/><path class="cls-2" d="M70.06,874.43c-26.83-17.69-26.83-20.1,0-37.79-26.83,17.69-30.49,17.69-57.32,0Z"/><path class="cls-2" d="M85.35,905.94C90.4,873.68,92,872,111,879.22,92,872,89.45,869.28,70.48,837,89.45,869.28,90.4,873.68,85.35,905.94Z"/><path class="cls-2" d="M55.5,959.54c17-27.95,19.29-27.95,36.27,0-17-27.95-17-31.76,0-59.7Z"/><path class="cls-2" d="M8.3,936.74c31,5.26,32.62,7,25.65,26.72,7-19.76,9.55-22.45,40.53-42.21C43.5,941,39.28,942,8.3,936.74Z"/><path class="cls-2" d="M10.65,886.05C5.6,918.31,4,920-15,912.76,4,920,6.55,922.71,25.52,955,6.55,922.71,5.6,918.31,10.65,886.05Z"/><path class="cls-2" d="M21.43,776.39c-5,32.26-6.68,34-25.65,26.71,19,7.26,21.56,9.95,40.53,42.22C17.34,813.05,16.39,808.65,21.43,776.39Z"/><path class="cls-2" d="M-23.51,682.64c5-32.27,6.68-34,25.65-26.72-19-7.26-21.56-9.95-40.53-42.22C-19.42,646-18.47,650.37-23.51,682.64Z"/><path class="cls-2" d="M-45.17,683.16c31,5.25,32.61,7,25.65,26.72,7-19.76,9.55-22.46,40.52-42.21C-10,687.42-14.2,688.41-45.17,683.16Z"/><path class="cls-2" d="M10,761.63c-26.83-17.69-26.83-20.1,0-37.79-26.83,17.69-30.49,17.69-57.32,0Z"/><path class="cls-2" d="M-11.92,810.78c5.05-32.26,6.68-34,25.65-26.71-19-7.26-21.55-10-40.52-42.22C-7.82,774.12-6.87,778.52-11.92,810.78Z"/><path class="cls-2" d="M-54.56,810c31,5.25,32.61,7,25.65,26.71,7-19.76,9.55-22.45,40.52-42.21C-19.36,814.26-23.59,815.25-54.56,810Z"/><path class="cls-2" d="M-12.65,892.4C-7.6,860.13-6,858.43,13,865.68c-19-7.25-21.55-9.95-40.52-42.21C-8.55,855.73-7.6,860.13-12.65,892.4Z"/><path class="cls-2" d="M-10.65,1019c5-32.26,6.68-34,25.65-26.71-19-7.26-21.55-10-40.52-42.22C-6.55,982.38-5.61,986.78-10.65,1019Z"/><path class="cls-2" d="M-21.43,1128.7c5-32.26,6.68-34,25.65-26.72-19-7.25-21.56-9.94-40.53-42.21C-17.34,1092-16.39,1096.44-21.43,1128.7Z"/><path class="cls-2" d="M45.39,1170.4c5-32.26,6.68-34,25.65-26.71-19-7.26-21.56-10-40.53-42.22C49.48,1133.74,50.43,1138.14,45.39,1170.4Z"/><path class="cls-2" d="M-10,1143.46c26.83,17.69,26.83,20.1,0,37.78,26.83-17.68,30.49-17.68,57.32,0Z"/><path class="cls-2" d="M11.92,1094.3c-5,32.27-6.68,34-25.65,26.72,19,7.25,21.55,10,40.52,42.21C7.82,1131,6.87,1126.57,11.92,1094.3Z"/><path class="cls-2" d="M54.56,1095.09c-31-5.25-32.61-6.95-25.65-26.71-7,19.76-9.55,22.45-40.52,42.21C19.36,1090.83,23.59,1089.84,54.56,1095.09Z"/><path class="cls-2" d="M16.64,1016.75c31,5.26,32.61,7,25.65,26.72,7-19.76,9.55-22.45,40.52-42.21C51.84,1021,47.61,1022,16.64,1016.75Z"/><path class="cls-2" d="M27.94,1044.2c26.83,17.69,26.83,20.1,0,37.79,26.83-17.69,30.49-17.69,57.31,0Z"/><path class="cls-2" d="M12.65,1012.69C7.6,1045,6,1046.66-13,1039.41c19,7.25,21.55,9.94,40.52,42.21C8.55,1049.35,7.6,1045,12.65,1012.69Z"/><path class="cls-2" d="M42.5,959.09c-17,27.95-19.29,27.95-36.27,0,17,27.95,17,31.76,0,59.7Z"/><path class="cls-2" d="M89.7,981.89c-31-5.26-32.62-7-25.65-26.72-7,19.76-9.55,22.45-40.53,42.21C54.5,977.62,58.72,976.63,89.7,981.89Z"/><path class="cls-2" d="M87.35,1032.58c5-32.26,6.68-34,25.65-26.71-19-7.26-21.55-10-40.52-42.22C91.45,995.92,92.39,1000.32,87.35,1032.58Z"/><path class="cls-2" d="M76.57,1142.24c5-32.26,6.68-34,25.65-26.71-19-7.26-21.56-10-40.53-42.22C80.66,1105.58,81.61,1110,76.57,1142.24Z"/><path class="cls-2" d="M996.55,44.39c-5,32.27-6.68,34-25.65,26.72,19,7.25,21.56,10,40.53,42.21C992.46,81.06,991.51,76.66,996.55,44.39Z"/><path class="cls-2" d="M1018.21,43.87c-31-5.26-32.61-7-25.65-26.72C985.6,36.91,983,39.6,952,59.36,983,39.6,987.24,38.61,1018.21,43.87Z"/><path class="cls-2" d="M1051.91,71.34c-26.83-17.69-26.83-20.1,0-37.79-26.83,17.69-30.48,17.69-57.31,0Z"/><path class="cls-2" d="M1030,120.49c5-32.26,6.68-34,25.65-26.71-19-7.26-21.56-10-40.53-42.22C1034.12,83.83,1035.07,88.23,1030,120.49Z"/><path class="cls-2" d="M981.36,118.05c31,5.25,32.61,7,25.64,26.72,7-19.76,9.56-22.45,40.53-42.21C1016.56,122.32,1012.33,123.3,981.36,118.05Z"/><path class="cls-2" d="M1001.53,8.39c31,5.26,32.61,7,25.65,26.72,7-19.76,9.55-22.45,40.52-42.21C1036.73,12.66,1032.51,13.65,1001.53,8.39Z"/><path class="cls-2" d="M963.08-34.6c26.82,17.69,26.82,20.1,0,37.78,26.82-17.68,30.48-17.68,57.31,0Z"/><path class="cls-2" d="M1094.55,57.93c-5,32.27-6.68,34-25.65,26.72,19,7.26,21.56,9.95,40.53,42.22C1090.46,94.6,1089.51,90.2,1094.55,57.93Z"/><path class="cls-2" d="M1116.21,57.41c-31-5.25-32.61-7-25.65-26.72-7,19.76-9.55,22.46-40.52,42.21C1081,53.15,1085.24,52.16,1116.21,57.41Z"/><path class="cls-2" d="M1061.08-21.06c26.82,17.69,26.82,20.1,0,37.79,26.82-17.69,30.48-17.69,57.31,0Z"/><path class="cls-2" d="M996.55,176.68c-5,32.27-6.68,34-25.65,26.72,19,7.25,21.56,9.95,40.53,42.21C992.46,213.35,991.51,209,996.55,176.68Z"/><path class="cls-2" d="M1018.21,176.16c-31-5.26-32.61-7-25.65-26.72-7,19.76-9.55,22.45-40.52,42.21C983,171.89,987.24,170.9,1018.21,176.16Z"/><path class="cls-2" d="M1051.91,203.63c-26.83-17.69-26.83-20.1,0-37.79-26.83,17.69-30.48,17.69-57.31,0Z"/><path class="cls-2" d="M1030,252.78c5-32.26,6.68-34,25.65-26.72-19-7.25-21.56-9.94-40.53-42.21C1034.12,216.12,1035.07,220.52,1030,252.78Z"/><path class="cls-2" d="M1001.53,140.68c31,5.25,32.61,7,25.65,26.72,7-19.76,9.55-22.45,40.52-42.21C1036.73,145,1032.51,145.93,1001.53,140.68Z"/><path class="cls-2" d="M1116.21,189.7c-31-5.26-32.61-7-25.65-26.72-7,19.76-9.55,22.45-40.52,42.21C1081,185.43,1085.24,184.44,1116.21,189.7Z"/><path class="cls-2" d="M1057.11,203.83c26.83,17.68,26.83,20.1,0,37.78,26.83-17.68,30.49-17.68,57.31,0Z"/><path class="cls-2" d="M1081.69,504.84c-5,32.27-6.68,34-25.65,26.72,19,7.25,21.56,10,40.53,42.21C1077.6,541.51,1076.65,537.11,1081.69,504.84Z"/><path class="cls-2" d="M1092.47,395.18c-5,32.27-6.68,34-25.65,26.72,19,7.26,21.56,10,40.53,42.22C1088.38,431.85,1087.43,427.45,1092.47,395.18Z"/><path class="cls-2" d="M1047.53,301.43c5-32.26,6.68-34,25.65-26.71-19-7.26-21.56-10-40.53-42.22C1051.62,264.77,1052.57,269.17,1047.53,301.43Z"/><path class="cls-2" d="M1025.87,302c31,5.25,32.61,7,25.65,26.72,7-19.76,9.55-22.46,40.53-42.22C1061.07,306.22,1056.85,307.21,1025.87,302Z"/><path class="cls-2" d="M992.17,274.49c26.83,17.69,26.83,20.1,0,37.78,26.83-17.68,30.49-17.68,57.32,0Z"/><path class="cls-2" d="M1014.06,225.33c-5,32.27-6.68,34-25.65,26.72,19,7.25,21.55,9.95,40.52,42.21C1010,262,1009,257.6,1014.06,225.33Z"/><path class="cls-2" d="M1025.65,353.48c-5,32.27-6.68,34-25.65,26.72,19,7.25,21.56,9.95,40.53,42.21C1021.56,390.15,1020.61,385.75,1025.65,353.48Z"/><path class="cls-2" d="M1042.55,337.43c-31-5.25-32.61-7-25.65-26.72-7,19.76-9.55,22.46-40.52,42.22C1007.35,333.17,1011.58,332.18,1042.55,337.43Z"/><path class="cls-2" d="M1081,380.43c-26.83-17.69-26.83-20.1,0-37.79-26.83,17.69-30.49,17.69-57.31,0Z"/><path class="cls-2" d="M1059.13,429.58c5-32.26,6.68-34,25.65-26.72-19-7.25-21.56-9.94-40.53-42.21C1063.22,392.92,1064.17,397.32,1059.13,429.58Z"/><path class="cls-2" d="M1016.48,428.79c31,5.26,32.61,7,25.65,26.72,7-19.76,9.55-22.45,40.52-42.21C1051.68,433.06,1047.45,434.05,1016.48,428.79Z"/><path class="cls-2" d="M1054.4,507.13c-31-5.25-32.61-7-25.65-26.72-7,19.76-9.55,22.46-40.52,42.22C1019.2,502.87,1023.43,501.88,1054.4,507.13Z"/><path class="cls-2" d="M1043.1,479.68c-26.83-17.68-26.83-20.09,0-37.78-26.83,17.69-30.49,17.69-57.31,0Z"/><path class="cls-2" d="M1058.4,511.2c5-32.27,6.68-34,25.65-26.72-19-7.25-21.56-10-40.53-42.21C1062.49,474.53,1063.44,478.93,1058.4,511.2Z"/><path class="cls-2" d="M1028.54,564.79c17-27.94,19.29-27.94,36.27,0-17-27.94-17-31.75,0-59.69Z"/><path class="cls-2" d="M981.35,542c31,5.25,32.61,7,25.65,26.72,7-19.76,9.55-22.46,40.52-42.22C1016.55,546.26,1012.32,547.25,981.35,542Z"/><path class="cls-2" d="M983.69,491.3c-5,32.27-6.68,34-25.65,26.72,19,7.25,21.56,10,40.53,42.21C979.6,528,978.65,523.57,983.69,491.3Z"/><path class="cls-2" d="M994.47,381.64c-5,32.27-6.68,34-25.65,26.72,19,7.25,21.56,9.95,40.53,42.21C990.38,418.31,989.43,413.91,994.47,381.64Z"/><path class="cls-2" d="M967,113.92c5.05-32.27,6.68-34,25.65-26.72-19-7.25-21.55-10-40.52-42.21C971.12,77.25,972.07,81.65,967,113.92Z"/><path class="cls-2" d="M945.36,114.44c31,5.26,32.62,7,25.65,26.72,7-19.76,9.55-22.45,40.53-42.21C980.56,118.71,976.34,119.7,945.36,114.44Z"/><path class="cls-2" d="M911.67,87c26.82,17.69,26.82,20.1,0,37.79,26.82-17.69,30.48-17.69,57.31,0Z"/><path class="cls-2" d="M933.55,37.82c-5,32.26-6.68,34-25.65,26.72,19,7.25,21.56,9.94,40.53,42.21C929.46,74.48,928.51,70.08,933.55,37.82Z"/><path class="cls-2" d="M982.22,40.26c-31-5.25-32.61-7-25.65-26.72C949.61,33.3,947,36,916.05,55.76,947,36,951.25,35,982.22,40.26Z"/><path class="cls-2" d="M945.14,166c-5,32.26-6.68,34-25.65,26.71,19,7.26,21.56,9.95,40.53,42.22C941.05,202.63,940.1,198.23,945.14,166Z"/><path class="cls-2" d="M962.05,149.92c-31-5.26-32.62-7-25.65-26.72-7,19.76-9.55,22.45-40.53,42.21C926.85,145.65,931.07,144.66,962.05,149.92Z"/><path class="cls-2" d="M1000.5,192.91c-26.83-17.69-26.83-20.1,0-37.78-26.83,17.68-30.48,17.68-57.31,0Z"/><path class="cls-2" d="M978.62,242.07c5-32.27,6.68-34,25.65-26.72-19-7.25-21.56-9.95-40.53-42.21C982.71,205.4,983.66,209.8,978.62,242.07Z"/><path class="cls-2" d="M936,241.28c31,5.25,32.61,7,25.65,26.71,7-19.75,9.55-22.45,40.53-42.21C971.17,245.54,967,246.53,936,241.28Z"/><path class="cls-2" d="M973.9,319.62c-31-5.26-32.62-7-25.65-26.72-7,19.76-9.55,22.45-40.53,42.21C938.7,315.35,942.92,314.36,973.9,319.62Z"/><path class="cls-2" d="M962.59,292.17c-26.82-17.69-26.82-20.1,0-37.79-26.82,17.69-30.48,17.69-57.31,0Z"/><path class="cls-2" d="M977.89,323.68c5-32.26,6.68-34,25.65-26.72-19-7.25-21.56-9.94-40.53-42.21C982,287,982.93,291.42,977.89,323.68Z"/><path class="cls-2" d="M948,377.28c17-27.94,19.29-27.94,36.27,0-17-27.94-17-31.76,0-59.7Z"/><path class="cls-2" d="M900.84,354.49c31,5.25,32.61,6.95,25.65,26.71,7-19.76,9.55-22.45,40.52-42.21C936,358.75,931.82,359.74,900.84,354.49Z"/><path class="cls-2" d="M903.18,303.79c-5,32.26-6.68,34-25.65,26.71,19,7.26,21.56,9.95,40.53,42.22C899.09,340.45,898.14,336.05,903.18,303.79Z"/><path class="cls-2" d="M914,194.13c-5,32.26-6.68,34-25.65,26.72,19,7.25,21.56,9.94,40.53,42.21C909.87,230.79,908.92,226.39,914,194.13Z"/><path class="cls-2" d="M869,100.38c5.05-32.27,6.68-34,25.65-26.72-19-7.25-21.55-9.95-40.52-42.21C873.12,63.71,874.07,68.11,869,100.38Z"/><path class="cls-2" d="M847.36,100.9c31,5.25,32.62,7,25.65,26.72,7-19.76,9.55-22.45,40.53-42.21C882.56,105.17,878.34,106.15,847.36,100.9Z"/><path class="cls-2" d="M813.67,73.43c26.82,17.69,26.82,20.1,0,37.79,26.82-17.69,30.48-17.69,57.31,0Z"/><path class="cls-2" d="M835.55,24.28c-5,32.26-6.68,34-25.65,26.71,19,7.26,21.56,9.95,40.53,42.22C831.46,60.94,830.51,56.54,835.55,24.28Z"/><path class="cls-2" d="M884.22,26.72c-31-5.25-32.61-7-25.65-26.72-7,19.76-9.55,22.45-40.52,42.21C849,22.45,853.25,21.47,884.22,26.72Z"/><path class="cls-2" d="M847.14,152.43c-5,32.26-6.68,34-25.65,26.71,19,7.26,21.56,10,40.53,42.22C843.05,189.09,842.1,184.69,847.14,152.43Z"/><path class="cls-2" d="M864.05,136.38c-31-5.26-32.62-7-25.65-26.72-7,19.76-9.55,22.45-40.53,42.21C828.85,132.11,833.07,131.12,864.05,136.38Z"/><path class="cls-2" d="M902.5,179.37c-26.83-17.69-26.83-20.1,0-37.78-26.83,17.68-30.48,17.68-57.31,0Z"/><path class="cls-2" d="M880.62,228.53c5-32.27,6.68-34,25.65-26.72-19-7.26-21.56-9.95-40.53-42.22C884.71,191.86,885.66,196.26,880.62,228.53Z"/><path class="cls-2" d="M838,227.74c31,5.25,32.61,6.95,25.65,26.71,7-19.76,9.55-22.45,40.53-42.21C873.17,232,869,233,838,227.74Z"/><path class="cls-2" d="M875.9,306.08c-31-5.26-32.62-7-25.65-26.72-7,19.76-9.55,22.45-40.53,42.21C840.7,301.81,844.92,300.82,875.9,306.08Z"/><path class="cls-2" d="M864.59,278.63c-26.82-17.69-26.82-20.1,0-37.79-26.82,17.69-30.48,17.69-57.31,0Z"/><path class="cls-2" d="M879.89,310.14c5-32.27,6.68-34,25.65-26.72-19-7.25-21.56-9.95-40.53-42.21C884,273.47,884.93,277.87,879.89,310.14Z"/><path class="cls-2" d="M850,363.74c17-27.95,19.29-27.95,36.27,0-17-27.95-17-31.76,0-59.7Z"/><path class="cls-2" d="M802.84,340.94c31,5.26,32.61,7,25.65,26.72,7-19.76,9.55-22.45,40.52-42.21C838,345.21,833.82,346.2,802.84,340.94Z"/><path class="cls-2" d="M805.18,290.25c-5,32.26-6.68,34-25.65,26.71,19,7.26,21.56,10,40.53,42.22C801.09,326.91,800.14,322.51,805.18,290.25Z"/><path class="cls-2" d="M816,180.59c-5,32.26-6.68,34-25.65,26.71,19,7.26,21.56,9.95,40.53,42.22C811.87,217.25,810.92,212.85,816,180.59Z"/><path class="cls-2" d="M818.05,626.65c-5,32.27-6.68,34-25.65,26.72,19,7.25,21.55,10,40.52,42.21C814,663.32,813,658.92,818.05,626.65Z"/><path class="cls-2" d="M839.71,626.13c-31-5.26-32.62-7-25.65-26.72-7,19.76-9.55,22.45-40.53,42.21C804.51,621.86,808.73,620.87,839.71,626.13Z"/><path class="cls-2" d="M873.4,653.6c-26.82-17.69-26.82-20.1,0-37.79-26.82,17.69-30.48,17.69-57.31,0Z"/><path class="cls-2" d="M851.52,702.75c5-32.26,6.68-34,25.65-26.72-19-7.25-21.56-9.94-40.53-42.21C855.61,666.09,856.56,670.49,851.52,702.75Z"/><path class="cls-2" d="M802.85,700.31c31,5.25,32.61,7,25.65,26.72,7-19.76,9.55-22.46,40.52-42.21C838.05,704.57,833.82,705.56,802.85,700.31Z"/><path class="cls-2" d="M839.93,574.6c5-32.26,6.68-34,25.65-26.71-19-7.26-21.56-9.95-40.53-42.22C844,537.94,845,542.34,839.93,574.6Z"/><path class="cls-2" d="M823,590.65c31,5.26,32.62,7,25.65,26.72,7-19.76,9.55-22.45,40.53-42.21C858.22,594.92,854,595.91,823,590.65Z"/><path class="cls-2" d="M784.57,547.66c26.83,17.69,26.83,20.1,0,37.78,26.83-17.68,30.48-17.68,57.31,0Z"/><path class="cls-2" d="M806.45,498.5c-5,32.27-6.68,34-25.65,26.72,19,7.25,21.56,9.95,40.53,42.21C802.36,535.17,801.41,530.77,806.45,498.5Z"/><path class="cls-2" d="M849.1,499.29c-31-5.25-32.61-7-25.65-26.71-7,19.75-9.55,22.45-40.53,42.21C813.9,495,818.12,494,849.1,499.29Z"/><path class="cls-2" d="M811.17,421c31,5.26,32.62,7,25.65,26.72,7-19.76,9.55-22.45,40.53-42.21C846.37,425.22,842.15,426.21,811.17,421Z"/><path class="cls-2" d="M822.48,448.4c26.82,17.69,26.82,20.1,0,37.79,26.82-17.69,30.48-17.69,57.31,0Z"/><path class="cls-2" d="M807.18,416.89c-5,32.26-6.68,34-25.65,26.72,19,7.25,21.56,9.94,40.53,42.21C803.09,453.55,802.14,449.15,807.18,416.89Z"/><path class="cls-2" d="M837,363.29c-17,27.94-19.3,27.94-36.27,0,17,27.94,17,31.76,0,59.7Z"/><path class="cls-2" d="M884.23,386.08c-31-5.25-32.61-6.95-25.65-26.71-7,19.76-9.55,22.45-40.52,42.21C849,381.82,853.25,380.83,884.23,386.08Z"/><path class="cls-2" d="M881.89,436.78c5-32.26,6.68-34,25.65-26.71-19-7.26-21.56-9.95-40.53-42.22C886,400.12,886.93,404.52,881.89,436.78Z"/><path class="cls-2" d="M871.11,546.44c5-32.26,6.68-34,25.65-26.72-19-7.25-21.56-9.94-40.53-42.21C875.2,509.78,876.15,514.18,871.11,546.44Z"/><path class="cls-2" d="M916.05,640.19c-5,32.27-6.68,34-25.65,26.72,19,7.25,21.55,10,40.52,42.21C912,676.86,911,672.46,916.05,640.19Z"/><path class="cls-2" d="M937.71,639.67c-31-5.25-32.62-7-25.65-26.72-7,19.76-9.55,22.45-40.53,42.21C902.51,635.4,906.73,634.42,937.71,639.67Z"/><path class="cls-2" d="M971.4,667.14c-26.82-17.69-26.82-20.1,0-37.79-26.82,17.69-30.48,17.69-57.31,0Z"/><path class="cls-2" d="M971.43,788.76c-26.83-17.68-26.83-20.1,0-37.78-26.83,17.68-30.48,17.68-57.31,0Z"/><path class="cls-2" d="M949.52,716.29c5-32.26,6.68-34,25.65-26.71-19-7.26-21.56-10-40.53-42.22C953.61,679.63,954.56,684,949.52,716.29Z"/><path class="cls-2" d="M900.85,713.85c31,5.26,32.61,7,25.65,26.72,7-19.76,9.55-22.45,40.52-42.21C936.05,718.12,931.82,719.11,900.85,713.85Z"/><path class="cls-2" d="M983.5,685.18c-5,32.27-6.68,34-25.65,26.72,19,7.25,21.56,10,40.53,42.21C979.41,721.85,978.46,717.45,983.5,685.18Z"/><path class="cls-2" d="M937.93,588.14c5-32.26,6.68-34,25.65-26.71-19-7.26-21.56-9.95-40.53-42.22C942,551.48,943,555.88,937.93,588.14Z"/><path class="cls-2" d="M921,604.19c31,5.26,32.62,7,25.65,26.72,7-19.76,9.55-22.45,40.53-42.21C956.22,608.46,952,609.45,921,604.19Z"/><path class="cls-2" d="M882.57,561.2c26.83,17.69,26.83,20.1,0,37.79,26.83-17.69,30.48-17.69,57.31,0Z"/><path class="cls-2" d="M818.05,758.94c-5,32.27-6.68,34-25.65,26.72,19,7.25,21.55,10,40.52,42.21C814,795.61,813,791.21,818.05,758.94Z"/><path class="cls-2" d="M839.71,758.42c-31-5.26-32.62-7-25.65-26.72-7,19.76-9.55,22.45-40.53,42.21C804.51,754.15,808.73,753.16,839.71,758.42Z"/><path class="cls-2" d="M873.4,785.88c-26.82-17.68-26.82-20.09,0-37.78-26.82,17.69-30.48,17.69-57.31,0Z"/><path class="cls-2" d="M851.52,835c5-32.27,6.68-34,25.65-26.72-19-7.25-21.56-9.94-40.53-42.21C855.61,798.38,856.56,802.77,851.52,835Z"/><path class="cls-2" d="M823,722.94c31,5.25,32.62,7,25.65,26.72,7-19.76,9.55-22.46,40.53-42.21C858.22,727.2,854,728.19,823,722.94Z"/><path class="cls-2" d="M937.71,772c-31-5.26-32.62-7-25.65-26.72-7,19.76-9.55,22.45-40.53,42.21C902.51,767.69,906.73,766.7,937.71,772Z"/><path class="cls-2" d="M878.6,786.09c26.83,17.68,26.83,20.1,0,37.78,26.83-17.68,30.49-17.68,57.32,0Z"/><path class="cls-2" d="M904.45,512c-5,32.27-6.68,34-25.65,26.72,19,7.26,21.56,10,40.53,42.22C900.36,548.71,899.41,544.31,904.45,512Z"/><path class="cls-2" d="M947.1,512.83c-31-5.25-32.61-7-25.65-26.71-7,19.76-9.55,22.45-40.53,42.21C911.9,508.57,916.12,507.58,947.1,512.83Z"/><path class="cls-2" d="M909.17,434.5c31,5.25,32.62,6.95,25.65,26.71,7-19.76,9.55-22.45,40.53-42.21C944.37,438.76,940.15,439.75,909.17,434.5Z"/><path class="cls-2" d="M920.48,461.94c26.82,17.69,26.82,20.1,0,37.79C947.3,482,951,482,977.79,499.73Z"/><path class="cls-2" d="M905.18,430.43c-5,32.27-6.68,34-25.65,26.72,19,7.25,21.56,10,40.53,42.21C901.09,467.1,900.14,462.7,905.18,430.43Z"/><path class="cls-2" d="M935,376.83c-17,27.95-19.3,27.95-36.27,0,17,27.95,17,31.76,0,59.7Z"/><path class="cls-2" d="M982.23,399.63c-31-5.26-32.61-7-25.65-26.72-7,19.76-9.55,22.45-40.52,42.21C947,395.36,951.25,394.37,982.23,399.63Z"/><path class="cls-2" d="M979.89,450.32c5-32.26,6.68-34,25.65-26.71-19-7.26-21.56-9.95-40.53-42.22C984,413.66,984.93,418.06,979.89,450.32Z"/><path class="cls-2" d="M969.11,560c5-32.26,6.68-34,25.65-26.71-19-7.26-21.56-9.95-40.53-42.22C973.2,523.32,974.15,527.72,969.11,560Z"/><path class="cls-2" d="M967,897.23c5.05-32.26,6.68-34,25.65-26.71-19-7.26-21.55-9.95-40.52-42.22C971.12,860.57,972.07,865,967,897.23Z"/><path class="cls-2" d="M945.36,897.76c31,5.25,32.62,7,25.65,26.72,7-19.76,9.55-22.46,40.53-42.22C980.56,902,976.34,903,945.36,897.76Z"/><path class="cls-2" d="M911.67,870.29c26.82,17.69,26.82,20.1,0,37.78,26.82-17.68,30.48-17.68,57.31,0Z"/><path class="cls-2" d="M933.55,821.13c-5,32.27-6.68,34-25.65,26.72,19,7.25,21.56,9.95,40.53,42.21C929.46,857.8,928.51,853.4,933.55,821.13Z"/><path class="cls-2" d="M982.22,823.57c-31-5.25-32.61-7-25.65-26.71-7,19.76-9.55,22.45-40.52,42.21C947,819.31,951.25,818.32,982.22,823.57Z"/><path class="cls-2" d="M945.14,949.28c-5,32.27-6.68,34-25.65,26.72,19,7.25,21.56,10,40.53,42.21C941.05,986,940.1,981.55,945.14,949.28Z"/><path class="cls-2" d="M962.05,933.23c-31-5.25-32.62-7-25.65-26.71-7,19.76-9.55,22.45-40.53,42.21C926.85,929,931.07,928,962.05,933.23Z"/><path class="cls-2" d="M1000.5,976.23c-26.83-17.69-26.83-20.1,0-37.79-26.83,17.69-30.48,17.69-57.31,0Z"/><path class="cls-2" d="M978.62,1025.38c5-32.26,6.68-34,25.65-26.72-19-7.25-21.56-9.94-40.53-42.21C982.71,988.72,983.66,993.12,978.62,1025.38Z"/><path class="cls-2" d="M936,1024.59c31,5.26,32.61,7,25.65,26.72,7-19.76,9.55-22.45,40.53-42.21C971.17,1028.86,967,1029.85,936,1024.59Z"/><path class="cls-2" d="M973.9,1102.93c-31-5.25-32.62-7-25.65-26.72-7,19.76-9.55,22.46-40.53,42.22C938.7,1098.67,942.92,1097.68,973.9,1102.93Z"/><path class="cls-2" d="M962.59,1075.48c-26.82-17.68-26.82-20.09,0-37.78-26.82,17.69-30.48,17.69-57.31,0Z"/><path class="cls-2" d="M977.89,1107c5-32.27,6.68-34,25.65-26.72-19-7.25-21.56-10-40.53-42.21C982,1070.33,982.93,1074.73,977.89,1107Z"/><path class="cls-2" d="M948,1160.6c17-27.95,19.29-27.95,36.27,0-17-27.95-17-31.76,0-59.7Z"/><path class="cls-2" d="M900.84,1137.8c31,5.25,32.61,7,25.65,26.72,7-19.76,9.55-22.46,40.52-42.21C936,1142.06,931.82,1143.05,900.84,1137.8Z"/><path class="cls-2" d="M903.18,1087.1c-5,32.27-6.68,34-25.65,26.72,19,7.25,21.56,10,40.53,42.21C899.09,1123.77,898.14,1119.37,903.18,1087.1Z"/><path class="cls-2" d="M914,977.44c-5,32.27-6.68,34-25.65,26.72,19,7.25,21.56,10,40.53,42.21C909.87,1014.11,908.92,1009.71,914,977.44Z"/><path class="cls-2" d="M869,883.69c5.05-32.26,6.68-34,25.65-26.72-19-7.25-21.55-9.94-40.52-42.21C873.12,847,874.07,851.43,869,883.69Z"/><path class="cls-2" d="M847.36,884.22c31,5.25,32.62,7,25.65,26.72,7-19.76,9.55-22.46,40.53-42.22C882.56,888.48,878.34,889.47,847.36,884.22Z"/><path class="cls-2" d="M813.67,856.75c26.82,17.68,26.82,20.1,0,37.78,26.82-17.68,30.48-17.68,57.31,0Z"/><path class="cls-2" d="M835.55,807.59c-5,32.27-6.68,34-25.65,26.72,19,7.25,21.56,10,40.53,42.21C831.46,844.26,830.51,839.86,835.55,807.59Z"/><path class="cls-2" d="M847.14,935.74c-5,32.27-6.68,34-25.65,26.72,19,7.25,21.56,9.95,40.53,42.21C843.05,972.41,842.1,968,847.14,935.74Z"/><path class="cls-2" d="M864.05,919.69c-31-5.25-32.62-7-25.65-26.72-7,19.76-9.55,22.46-40.53,42.22C828.85,915.43,833.07,914.44,864.05,919.69Z"/><path class="cls-2" d="M902.5,962.68c-26.83-17.68-26.83-20.09,0-37.78-26.83,17.69-30.48,17.69-57.31,0Z"/><path class="cls-2" d="M880.62,1011.84c5-32.26,6.68-34,25.65-26.72-19-7.25-21.56-9.94-40.53-42.21C884.71,975.18,885.66,979.58,880.62,1011.84Z"/><path class="cls-2" d="M838,1011.05c31,5.25,32.61,7,25.65,26.72,7-19.76,9.55-22.45,40.53-42.21C873.17,1015.32,869,1016.3,838,1011.05Z"/><path class="cls-2" d="M875.9,1089.39c-31-5.25-32.62-7-25.65-26.72-7,19.76-9.55,22.46-40.53,42.22C840.7,1085.13,844.92,1084.14,875.9,1089.39Z"/><path class="cls-2" d="M864.59,1061.94c-26.82-17.68-26.82-20.09,0-37.78-26.82,17.69-30.48,17.69-57.31,0Z"/><path class="cls-2" d="M879.89,1093.46c5-32.27,6.68-34,25.65-26.72-19-7.26-21.56-10-40.53-42.22C884,1056.79,884.93,1061.19,879.89,1093.46Z"/><path class="cls-2" d="M850,1147.05c17-27.94,19.29-27.94,36.27,0-17-27.94-17-31.75,0-59.7Z"/><path class="cls-2" d="M802.84,1124.26c31,5.25,32.61,7,25.65,26.72,7-19.76,9.55-22.46,40.52-42.22C838,1128.52,833.82,1129.51,802.84,1124.26Z"/><path class="cls-2" d="M805.18,1073.56c-5,32.27-6.68,34-25.65,26.72,19,7.25,21.56,10,40.53,42.21C801.09,1110.23,800.14,1105.83,805.18,1073.56Z"/><path class="cls-2" d="M816,963.9c-5,32.27-6.68,34-25.65,26.72,19,7.25,21.56,10,40.53,42.21C811.87,1000.57,810.92,996.17,816,963.9Z"/><path class="cls-2" d="M639.54,44.39c-5,32.27-6.68,34-25.65,26.72,19,7.25,21.56,10,40.53,42.21C635.45,81.06,634.5,76.66,639.54,44.39Z"/><path class="cls-2" d="M661.2,43.87c-31-5.26-32.61-7-25.65-26.72C628.59,36.91,626,39.6,595,59.36,626,39.6,630.22,38.61,661.2,43.87Z"/><path class="cls-2" d="M694.9,71.34c-26.83-17.69-26.83-20.1,0-37.79-26.83,17.69-30.49,17.69-57.32,0Z"/><path class="cls-2" d="M673,120.49c5-32.26,6.68-34,25.65-26.71-19-7.26-21.55-10-40.52-42.22C677.11,83.83,678.06,88.23,673,120.49Z"/><path class="cls-2" d="M624.34,118.05c31,5.25,32.61,7,25.65,26.72,7-19.76,9.55-22.45,40.53-42.21C659.54,122.32,655.32,123.3,624.34,118.05Z"/><path class="cls-2" d="M644.52,8.39c31,5.26,32.61,7,25.64,26.72,7-19.76,9.56-22.45,40.53-42.21C679.72,12.66,675.49,13.65,644.52,8.39Z"/><path class="cls-2" d="M606.06-34.6c26.83,17.69,26.83,20.1,0,37.78,26.83-17.68,30.49-17.68,57.31,0Z"/><path class="cls-2" d="M737.54,57.93c-5,32.27-6.68,34-25.65,26.72,19,7.26,21.56,9.95,40.53,42.22C733.45,94.6,732.5,90.2,737.54,57.93Z"/><path class="cls-2" d="M759.2,57.41c-31-5.25-32.61-7-25.65-26.72C726.59,50.45,724,53.15,693,72.9,724,53.15,728.22,52.16,759.2,57.41Z"/><path class="cls-2" d="M792.9,84.88c-26.83-17.69-26.83-20.1,0-37.79-26.83,17.69-30.49,17.69-57.32,0Z"/><path class="cls-2" d="M792.92,206.5c-26.82-17.68-26.82-20.1,0-37.78-26.82,17.68-30.48,17.68-57.31,0Z"/><path class="cls-2" d="M771,134c5-32.26,6.68-34,25.65-26.71-19-7.26-21.55-9.95-40.52-42.22C775.11,97.37,776.06,101.77,771,134Z"/><path class="cls-2" d="M722.34,131.59c31,5.26,32.61,7,25.65,26.72,7-19.76,9.55-22.45,40.53-42.21C757.54,135.86,753.32,136.85,722.34,131.59Z"/><path class="cls-2" d="M805,102.92c-5,32.27-6.68,34-25.65,26.72,19,7.26,21.56,10,40.53,42.22C800.9,139.59,800,135.19,805,102.92Z"/><path class="cls-2" d="M759.42,5.88c5-32.26,6.68-34,25.65-26.71-19-7.26-21.56-10-40.53-42.22C763.51-30.78,764.46-26.38,759.42,5.88Z"/><path class="cls-2" d="M742.52,21.93c31,5.26,32.61,7,25.64,26.72,7-19.76,9.56-22.45,40.53-42.21C777.72,26.2,773.49,27.19,742.52,21.93Z"/><path class="cls-2" d="M704.06-21.06c26.83,17.69,26.83,20.1,0,37.79C730.89-1,734.55-1,761.37,16.73Z"/><path class="cls-2" d="M639.54,176.68c-5,32.27-6.68,34-25.65,26.72,19,7.25,21.56,9.95,40.53,42.21C635.45,213.35,634.5,209,639.54,176.68Z"/><path class="cls-2" d="M661.2,176.16c-31-5.26-32.61-7-25.65-26.72-7,19.76-9.55,22.45-40.53,42.21C626,171.89,630.22,170.9,661.2,176.16Z"/><path class="cls-2" d="M694.9,203.63c-26.83-17.69-26.83-20.1,0-37.79-26.83,17.69-30.49,17.69-57.32,0Z"/><path class="cls-2" d="M673,252.78c5-32.26,6.68-34,25.65-26.72-19-7.25-21.55-9.94-40.52-42.21C677.11,216.12,678.06,220.52,673,252.78Z"/><path class="cls-2" d="M644.52,140.68c31,5.25,32.61,7,25.64,26.72,7-19.76,9.56-22.45,40.53-42.21C679.72,145,675.49,145.93,644.52,140.68Z"/><path class="cls-2" d="M759.2,189.7c-31-5.26-32.61-7-25.65-26.72-7,19.76-9.55,22.45-40.53,42.21C724,185.43,728.22,184.44,759.2,189.7Z"/><path class="cls-2" d="M700.1,203.83c26.82,17.68,26.82,20.1,0,37.78,26.82-17.68,30.48-17.68,57.31,0Z"/><path class="cls-2" d="M788.52,315c5-32.26,6.68-34,25.65-26.71-19-7.26-21.56-9.95-40.53-42.22C792.61,278.31,793.56,282.71,788.52,315Z"/><path class="cls-2" d="M766.86,315.5c31,5.25,32.61,7,25.65,26.72,7-19.76,9.55-22.46,40.52-42.22C802.06,319.76,797.83,320.75,766.86,315.5Z"/><path class="cls-2" d="M733.16,288c26.83,17.69,26.83,20.1,0,37.78,26.83-17.68,30.48-17.68,57.31,0Z"/><path class="cls-2" d="M755,238.87c-5,32.27-6.68,34-25.65,26.72,19,7.26,21.56,10,40.53,42.22C751,275.54,750,271.14,755,238.87Z"/><path class="cls-2" d="M803.71,241.32c-31-5.26-32.61-7-25.65-26.72-7,19.76-9.55,22.45-40.52,42.21C768.51,237.05,772.74,236.06,803.71,241.32Z"/><path class="cls-2" d="M766.64,367c-5,32.27-6.68,34-25.65,26.72,19,7.25,21.55,9.95,40.52,42.21C762.54,403.69,761.59,399.29,766.64,367Z"/><path class="cls-2" d="M783.54,351c-31-5.25-32.61-7-25.65-26.71-7,19.76-9.55,22.45-40.53,42.21C748.34,346.71,752.56,345.72,783.54,351Z"/><path class="cls-2" d="M822,394c-26.82-17.69-26.82-20.1,0-37.79-26.82,17.69-30.48,17.69-57.31,0Z"/><path class="cls-2" d="M800.11,443.12c5-32.26,6.68-34,25.65-26.71-19-7.26-21.56-10-40.52-42.22C804.2,406.46,805.15,410.86,800.11,443.12Z"/><path class="cls-2" d="M757.46,442.33c31,5.26,32.62,7,25.65,26.72,7-19.76,9.55-22.45,40.53-42.21C792.66,446.6,788.44,447.59,757.46,442.33Z"/><path class="cls-2" d="M795.39,520.67c-31-5.25-32.61-7-25.65-26.71-7,19.75-9.55,22.45-40.53,42.21C760.19,516.41,764.41,515.42,795.39,520.67Z"/><path class="cls-2" d="M784.09,493.23c-26.83-17.69-26.83-20.1,0-37.79-26.83,17.69-30.49,17.69-57.32,0Z"/><path class="cls-2" d="M799.38,524.74c5-32.27,6.68-34,25.65-26.72-19-7.25-21.55-9.95-40.52-42.21C803.48,488.07,804.43,492.47,799.38,524.74Z"/><path class="cls-2" d="M769.52,578.34c17-28,19.3-28,36.28,0-17-28-17-31.76,0-59.7Z"/><path class="cls-2" d="M722.33,555.54c31,5.25,32.62,7,25.65,26.72,7-19.76,9.55-22.45,40.53-42.21C757.53,559.81,753.31,560.79,722.33,555.54Z"/><path class="cls-2" d="M724.68,504.84c-5,32.27-6.68,34-25.65,26.72,19,7.25,21.55,10,40.52,42.21C720.58,541.51,719.63,537.11,724.68,504.84Z"/><path class="cls-2" d="M735.46,395.18c-5.05,32.27-6.68,34-25.65,26.72,19,7.26,21.55,10,40.52,42.22C731.36,431.85,730.41,427.45,735.46,395.18Z"/><path class="cls-2" d="M690.52,301.43c5-32.26,6.68-34,25.65-26.71-19-7.26-21.56-10-40.53-42.22C694.61,264.77,695.56,269.17,690.52,301.43Z"/><path class="cls-2" d="M668.86,302c31,5.25,32.61,7,25.65,26.72,7-19.76,9.55-22.46,40.52-42.22C704.06,306.22,699.83,307.21,668.86,302Z"/><path class="cls-2" d="M635.16,274.49c26.83,17.69,26.83,20.1,0,37.78,26.83-17.68,30.48-17.68,57.31,0Z"/><path class="cls-2" d="M657,225.33c-5,32.27-6.68,34-25.65,26.72,19,7.25,21.56,9.95,40.53,42.21C653,262,652,257.6,657,225.33Z"/><path class="cls-2" d="M668.64,353.48c-5,32.27-6.68,34-25.65,26.72,19,7.25,21.55,9.95,40.52,42.21C664.54,390.15,663.59,385.75,668.64,353.48Z"/><path class="cls-2" d="M685.54,337.43c-31-5.25-32.61-7-25.65-26.72-7,19.76-9.55,22.46-40.53,42.22C650.34,333.17,654.56,332.18,685.54,337.43Z"/><path class="cls-2" d="M724,380.43c-26.82-17.69-26.82-20.1,0-37.79-26.82,17.69-30.48,17.69-57.31,0Z"/><path class="cls-2" d="M702.11,429.58c5-32.26,6.68-34,25.65-26.72-19-7.25-21.56-9.94-40.52-42.21C706.2,392.92,707.15,397.32,702.11,429.58Z"/><path class="cls-2" d="M659.46,428.79c31,5.26,32.62,7,25.65,26.72,7-19.76,9.55-22.45,40.53-42.21C694.66,433.06,690.44,434.05,659.46,428.79Z"/><path class="cls-2" d="M697.39,507.13c-31-5.25-32.61-7-25.65-26.72-7,19.76-9.55,22.46-40.53,42.22C662.19,502.87,666.41,501.88,697.39,507.13Z"/><path class="cls-2" d="M686.09,479.68c-26.83-17.68-26.83-20.09,0-37.78-26.83,17.69-30.49,17.69-57.32,0Z"/><path class="cls-2" d="M701.38,511.2c5-32.27,6.68-34,25.65-26.72-19-7.25-21.55-10-40.52-42.21C705.48,474.53,706.43,478.93,701.38,511.2Z"/><path class="cls-2" d="M671.52,564.79c17-27.94,19.3-27.94,36.28,0-17-27.94-17-31.75,0-59.69Z"/><path class="cls-2" d="M624.33,542c31,5.25,32.62,7,25.65,26.72,7-19.76,9.55-22.46,40.53-42.22C659.53,546.26,655.31,547.25,624.33,542Z"/><path class="cls-2" d="M626.68,491.3c-5,32.27-6.68,34-25.65,26.72,19,7.25,21.55,10,40.52,42.21C622.58,528,621.63,523.57,626.68,491.3Z"/><path class="cls-2" d="M637.46,381.64c-5.05,32.27-6.68,34-25.65,26.72,19,7.25,21.55,9.95,40.52,42.21C633.36,418.31,632.41,413.91,637.46,381.64Z"/><path class="cls-2" d="M610,113.92c5-32.27,6.68-34,25.65-26.72-19-7.25-21.56-10-40.53-42.21C614.1,77.25,615.05,81.65,610,113.92Z"/><path class="cls-2" d="M588.35,114.44c31,5.26,32.61,7,25.65,26.72,7-19.76,9.55-22.45,40.53-42.21C623.55,118.71,619.33,119.7,588.35,114.44Z"/><path class="cls-2" d="M554.65,87c26.83,17.69,26.83,20.1,0,37.79,26.83-17.69,30.49-17.69,57.31,0Z"/><path class="cls-2" d="M576.53,37.82c-5,32.26-6.67,34-25.64,26.72,19,7.25,21.55,9.94,40.52,42.21C572.44,74.48,571.49,70.08,576.53,37.82Z"/><path class="cls-2" d="M625.21,40.26c-31-5.25-32.62-7-25.65-26.72C592.59,33.3,590,36,559,55.76,590,36,594.23,35,625.21,40.26Z"/><path class="cls-2" d="M588.13,166c-5,32.26-6.68,34-25.65,26.71,19,7.26,21.56,9.95,40.53,42.22C584,202.63,583.09,198.23,588.13,166Z"/><path class="cls-2" d="M605,149.92c-31-5.26-32.61-7-25.65-26.72-7,19.76-9.55,22.45-40.52,42.21C569.83,145.65,574.06,144.66,605,149.92Z"/><path class="cls-2" d="M643.49,192.91c-26.83-17.69-26.83-20.1,0-37.78-26.83,17.68-30.49,17.68-57.31,0Z"/><path class="cls-2" d="M621.6,242.07c5-32.27,6.68-34,25.65-26.72-19-7.25-21.55-9.95-40.52-42.21C625.7,205.4,626.65,209.8,621.6,242.07Z"/><path class="cls-2" d="M579,241.28c31,5.25,32.61,7,25.65,26.71,7-19.75,9.55-22.45,40.52-42.21C614.16,245.54,609.93,246.53,579,241.28Z"/><path class="cls-2" d="M616.88,319.62c-31-5.26-32.61-7-25.65-26.72-7,19.76-9.55,22.45-40.52,42.21C581.68,315.35,585.91,314.36,616.88,319.62Z"/><path class="cls-2" d="M605.58,292.17c-26.83-17.69-26.83-20.1,0-37.79-26.83,17.69-30.49,17.69-57.31,0Z"/><path class="cls-2" d="M620.88,323.68c5-32.26,6.68-34,25.64-26.72-19-7.25-21.55-9.94-40.52-42.21C625,287,625.92,291.42,620.88,323.68Z"/><path class="cls-2" d="M591,377.28c17-27.94,19.29-27.94,36.27,0-17-27.94-17-31.76,0-59.7Z"/><path class="cls-2" d="M543.83,354.49c31,5.25,32.61,6.95,25.64,26.71,7-19.76,9.56-22.45,40.53-42.21C579,358.75,574.8,359.74,543.83,354.49Z"/><path class="cls-2" d="M546.17,303.79c-5,32.26-6.68,34-25.65,26.71,19,7.26,21.56,9.95,40.53,42.22C542.08,340.45,541.13,336.05,546.17,303.79Z"/><path class="cls-2" d="M557,194.13c-5,32.26-6.68,34-25.65,26.72,19,7.25,21.56,9.94,40.53,42.21C552.86,230.79,551.91,226.39,557,194.13Z"/><path class="cls-2" d="M512,100.38c5-32.27,6.68-34,25.65-26.72-19-7.25-21.56-9.95-40.53-42.21C516.1,63.71,517.05,68.11,512,100.38Z"/><path class="cls-2" d="M490.35,100.9c31,5.25,32.61,7,25.65,26.72,7-19.76,9.55-22.45,40.53-42.21C525.55,105.17,521.33,106.15,490.35,100.9Z"/><path class="cls-2" d="M456.65,73.43c26.83,17.69,26.83,20.1,0,37.79,26.83-17.69,30.49-17.69,57.31,0Z"/><path class="cls-2" d="M478.53,24.28c-5,32.26-6.67,34-25.64,26.71,19,7.26,21.55,9.95,40.52,42.22C474.44,60.94,473.49,56.54,478.53,24.28Z"/><path class="cls-2" d="M527.21,26.72c-31-5.25-32.62-7-25.65-26.72-7,19.76-9.55,22.45-40.53,42.21C492,22.45,496.23,21.47,527.21,26.72Z"/><path class="cls-2" d="M490.13,152.43c-5,32.26-6.68,34-25.65,26.71,19,7.26,21.56,10,40.53,42.22C486,189.09,485.09,184.69,490.13,152.43Z"/><path class="cls-2" d="M507,136.38c-31-5.26-32.61-7-25.65-26.72-7,19.76-9.55,22.45-40.52,42.21C471.83,132.11,476.06,131.12,507,136.38Z"/><path class="cls-2" d="M545.49,179.37c-26.83-17.69-26.83-20.1,0-37.78-26.83,17.68-30.49,17.68-57.31,0Z"/><path class="cls-2" d="M523.6,228.53c5-32.27,6.68-34,25.65-26.72-19-7.26-21.55-9.95-40.52-42.22C527.7,191.86,528.65,196.26,523.6,228.53Z"/><path class="cls-2" d="M481,227.74c31,5.25,32.61,6.95,25.65,26.71,7-19.76,9.55-22.45,40.52-42.21C516.16,232,511.93,233,481,227.74Z"/><path class="cls-2" d="M518.88,306.08c-31-5.26-32.61-7-25.65-26.72-7,19.76-9.55,22.45-40.52,42.21C483.68,301.81,487.91,300.82,518.88,306.08Z"/><path class="cls-2" d="M507.58,278.63c-26.83-17.69-26.83-20.1,0-37.79-26.83,17.69-30.49,17.69-57.31,0Z"/><path class="cls-2" d="M522.88,310.14c5-32.27,6.68-34,25.64-26.72-19-7.25-21.55-9.95-40.52-42.21C527,273.47,527.92,277.87,522.88,310.14Z"/><path class="cls-2" d="M493,363.74c17-27.95,19.29-27.95,36.27,0-17-27.95-17-31.76,0-59.7Z"/><path class="cls-2" d="M445.83,340.94c31,5.26,32.61,7,25.64,26.72,7-19.76,9.56-22.45,40.53-42.21C481,345.21,476.8,346.2,445.83,340.94Z"/><path class="cls-2" d="M448.17,290.25c-5,32.26-6.68,34-25.65,26.71,19,7.26,21.56,10,40.53,42.22C444.08,326.91,443.13,322.51,448.17,290.25Z"/><path class="cls-2" d="M459,180.59c-5,32.26-6.68,34-25.65,26.71,19,7.26,21.56,9.95,40.53,42.22C454.86,217.25,453.91,212.85,459,180.59Z"/><path class="cls-2" d="M461,626.65c-5,32.27-6.68,34-25.65,26.72,19,7.25,21.56,10,40.53,42.21C456.94,663.32,456,658.92,461,626.65Z"/><path class="cls-2" d="M482.69,626.13c-31-5.26-32.61-7-25.65-26.72-7,19.76-9.55,22.45-40.52,42.21C447.49,621.86,451.72,620.87,482.69,626.13Z"/><path class="cls-2" d="M516.39,653.6c-26.83-17.69-26.83-20.1,0-37.79-26.83,17.69-30.49,17.69-57.31,0Z"/><path class="cls-2" d="M494.51,702.75c5-32.26,6.68-34,25.65-26.72-19-7.25-21.56-9.94-40.53-42.21C498.6,666.09,499.55,670.49,494.51,702.75Z"/><path class="cls-2" d="M445.83,700.31c31,5.25,32.62,7,25.65,26.72,7-19.76,9.55-22.46,40.53-42.21C481,704.57,476.81,705.56,445.83,700.31Z"/><path class="cls-2" d="M482.91,574.6c5-32.26,6.68-34,25.65-26.71-19-7.26-21.55-9.95-40.52-42.22C487,537.94,488,542.34,482.91,574.6Z"/><path class="cls-2" d="M466,590.65c31,5.26,32.61,7,25.65,26.72,7-19.76,9.55-22.45,40.52-42.21C501.21,594.92,497,595.91,466,590.65Z"/><path class="cls-2" d="M427.55,547.66c26.83,17.69,26.83,20.1,0,37.78,26.83-17.68,30.49-17.68,57.32,0Z"/><path class="cls-2" d="M449.44,498.5c-5.05,32.27-6.68,34-25.65,26.72,19,7.25,21.55,9.95,40.52,42.21C445.34,535.17,444.39,530.77,449.44,498.5Z"/><path class="cls-2" d="M492.08,499.29c-31-5.25-32.61-7-25.65-26.71-7,19.75-9.55,22.45-40.52,42.21C456.88,495,461.11,494,492.08,499.29Z"/><path class="cls-2" d="M454.16,421c31,5.26,32.61,7,25.65,26.72,7-19.76,9.55-22.45,40.52-42.21C489.36,425.22,485.14,426.21,454.16,421Z"/><path class="cls-2" d="M465.46,448.4c26.83,17.69,26.83,20.1,0,37.79,26.83-17.69,30.49-17.69,57.32,0Z"/><path class="cls-2" d="M450.17,416.89c-5.05,32.26-6.68,34-25.65,26.72,19,7.25,21.55,9.94,40.52,42.21C446.07,453.55,445.12,449.15,450.17,416.89Z"/><path class="cls-2" d="M480,363.29c-17,27.94-19.3,27.94-36.28,0,17,27.94,17,31.76,0,59.7Z"/><path class="cls-2" d="M527.22,386.08c-31-5.25-32.62-6.95-25.65-26.71-7,19.76-9.55,22.45-40.53,42.21C492,381.82,496.24,380.83,527.22,386.08Z"/><path class="cls-2" d="M524.87,436.78c5-32.26,6.68-34,25.65-26.71-19-7.26-21.55-9.95-40.52-42.22C529,400.12,529.92,404.52,524.87,436.78Z"/><path class="cls-2" d="M514.09,546.44c5-32.26,6.68-34,25.65-26.72-19-7.25-21.55-9.94-40.52-42.21C518.19,509.78,519.13,514.18,514.09,546.44Z"/><path class="cls-2" d="M559,640.19c-5,32.27-6.68,34-25.65,26.72,19,7.25,21.56,10,40.53,42.21C554.94,676.86,554,672.46,559,640.19Z"/><path class="cls-2" d="M580.69,639.67c-31-5.25-32.61-7-25.65-26.72-7,19.76-9.55,22.45-40.52,42.21C545.49,635.4,549.72,634.42,580.69,639.67Z"/><path class="cls-2" d="M614.39,667.14c-26.83-17.69-26.83-20.1,0-37.79-26.83,17.69-30.49,17.69-57.31,0Z"/><path class="cls-2" d="M614.42,788.76c-26.83-17.68-26.83-20.1,0-37.78-26.83,17.68-30.49,17.68-57.31,0Z"/><path class="cls-2" d="M592.51,716.29c5-32.26,6.68-34,25.65-26.71-19-7.26-21.56-10-40.53-42.22C596.6,679.63,597.55,684,592.51,716.29Z"/><path class="cls-2" d="M543.83,713.85c31,5.26,32.62,7,25.65,26.72,7-19.76,9.55-22.45,40.53-42.21C579,718.12,574.81,719.11,543.83,713.85Z"/><path class="cls-2" d="M626.49,685.18c-5,32.27-6.68,34-25.65,26.72,19,7.25,21.55,10,40.52,42.21C622.39,721.85,621.44,717.45,626.49,685.18Z"/><path class="cls-2" d="M580.91,588.14c5-32.26,6.68-34,25.65-26.71-19-7.26-21.55-9.95-40.52-42.22C585,551.48,586,555.88,580.91,588.14Z"/><path class="cls-2" d="M564,604.19c31,5.26,32.61,7,25.65,26.72,7-19.76,9.55-22.45,40.52-42.21C599.21,608.46,595,609.45,564,604.19Z"/><path class="cls-2" d="M525.55,561.2c26.83,17.69,26.83,20.1,0,37.79,26.83-17.69,30.49-17.69,57.32,0Z"/><path class="cls-2" d="M461,758.94c-5,32.27-6.68,34-25.65,26.72,19,7.25,21.56,10,40.53,42.21C456.94,795.61,456,791.21,461,758.94Z"/><path class="cls-2" d="M482.69,758.42c-31-5.26-32.61-7-25.65-26.72-7,19.76-9.55,22.45-40.52,42.21C447.49,754.15,451.72,753.16,482.69,758.42Z"/><path class="cls-2" d="M516.39,785.88c-26.83-17.68-26.83-20.09,0-37.78-26.83,17.69-30.49,17.69-57.31,0Z"/><path class="cls-2" d="M494.51,835c5-32.27,6.68-34,25.65-26.72-19-7.25-21.56-9.94-40.53-42.21C498.6,798.38,499.55,802.77,494.51,835Z"/><path class="cls-2" d="M466,722.94c31,5.25,32.61,7,25.65,26.72,7-19.76,9.55-22.46,40.52-42.21C501.21,727.2,497,728.19,466,722.94Z"/><path class="cls-2" d="M580.69,772c-31-5.26-32.61-7-25.65-26.72-7,19.76-9.55,22.45-40.52,42.21C545.49,767.69,549.72,766.7,580.69,772Z"/><path class="cls-2" d="M521.59,786.09c26.83,17.68,26.83,20.1,0,37.78,26.83-17.68,30.49-17.68,57.31,0Z"/><path class="cls-2" d="M547.44,512c-5.05,32.27-6.68,34-25.65,26.72,19,7.26,21.55,10,40.52,42.22C543.34,548.71,542.39,544.31,547.44,512Z"/><path class="cls-2" d="M590.08,512.83c-31-5.25-32.61-7-25.65-26.71-7,19.76-9.55,22.45-40.52,42.21C554.88,508.57,559.11,507.58,590.08,512.83Z"/><path class="cls-2" d="M552.16,434.5c31,5.25,32.61,6.95,25.65,26.71,7-19.76,9.55-22.45,40.52-42.21C587.36,438.76,583.14,439.75,552.16,434.5Z"/><path class="cls-2" d="M563.46,461.94c26.83,17.69,26.83,20.1,0,37.79,26.83-17.69,30.49-17.69,57.32,0Z"/><path class="cls-2" d="M548.17,430.43c-5,32.27-6.68,34-25.65,26.72,19,7.25,21.55,10,40.52,42.21C544.07,467.1,543.12,462.7,548.17,430.43Z"/><path class="cls-2" d="M578,376.83c-17,27.95-19.3,27.95-36.28,0,17,27.95,17,31.76,0,59.7Z"/><path class="cls-2" d="M625.22,399.63c-31-5.26-32.62-7-25.65-26.72-7,19.76-9.55,22.45-40.53,42.21C590,395.36,594.24,394.37,625.22,399.63Z"/><path class="cls-2" d="M622.87,450.32c5-32.26,6.68-34,25.65-26.71-19-7.26-21.55-9.95-40.52-42.22C627,413.66,627.92,418.06,622.87,450.32Z"/><path class="cls-2" d="M612.09,560c5-32.26,6.68-34,25.65-26.71-19-7.26-21.55-9.95-40.52-42.22C616.19,523.32,617.13,527.72,612.09,560Z"/><path class="cls-2" d="M610,897.23c5-32.26,6.68-34,25.65-26.71-19-7.26-21.56-9.95-40.53-42.22C614.1,860.57,615.05,865,610,897.23Z"/><path class="cls-2" d="M588.35,897.76c31,5.25,32.61,7,25.65,26.72,7-19.76,9.55-22.46,40.53-42.22C623.55,902,619.33,903,588.35,897.76Z"/><path class="cls-2" d="M554.65,870.29c26.83,17.69,26.83,20.1,0,37.78,26.83-17.68,30.49-17.68,57.31,0Z"/><path class="cls-2" d="M576.53,821.13c-5,32.27-6.67,34-25.64,26.72,19,7.25,21.55,9.95,40.52,42.21C572.44,857.8,571.49,853.4,576.53,821.13Z"/><path class="cls-2" d="M625.21,823.57c-31-5.25-32.62-7-25.65-26.71-7,19.76-9.55,22.45-40.53,42.21C590,819.31,594.23,818.32,625.21,823.57Z"/><path class="cls-2" d="M588.13,949.28c-5,32.27-6.68,34-25.65,26.72,19,7.25,21.56,10,40.53,42.21C584,986,583.09,981.55,588.13,949.28Z"/><path class="cls-2" d="M605,933.23c-31-5.25-32.61-7-25.65-26.71-7,19.76-9.55,22.45-40.52,42.21C569.83,929,574.06,928,605,933.23Z"/><path class="cls-2" d="M643.49,976.23c-26.83-17.69-26.83-20.1,0-37.79-26.83,17.69-30.49,17.69-57.31,0Z"/><path class="cls-2" d="M621.6,1025.38c5-32.26,6.68-34,25.65-26.72-19-7.25-21.55-9.94-40.52-42.21C625.7,988.72,626.65,993.12,621.6,1025.38Z"/><path class="cls-2" d="M579,1024.59c31,5.26,32.61,7,25.65,26.72,7-19.76,9.55-22.45,40.52-42.21C614.16,1028.86,609.93,1029.85,579,1024.59Z"/><path class="cls-2" d="M616.88,1102.93c-31-5.25-32.61-7-25.65-26.72-7,19.76-9.55,22.46-40.52,42.22C581.68,1098.67,585.91,1097.68,616.88,1102.93Z"/><path class="cls-2" d="M605.58,1075.48c-26.83-17.68-26.83-20.09,0-37.78-26.83,17.69-30.49,17.69-57.31,0Z"/><path class="cls-2" d="M620.88,1107c5-32.27,6.68-34,25.64-26.72-19-7.25-21.55-10-40.52-42.21C625,1070.33,625.92,1074.73,620.88,1107Z"/><path class="cls-2" d="M591,1160.6c17-27.95,19.29-27.95,36.27,0-17-27.95-17-31.76,0-59.7Z"/><path class="cls-2" d="M543.83,1137.8c31,5.25,32.61,7,25.64,26.72,7-19.76,9.56-22.46,40.53-42.21C579,1142.06,574.8,1143.05,543.83,1137.8Z"/><path class="cls-2" d="M546.17,1087.1c-5,32.27-6.68,34-25.65,26.72,19,7.25,21.56,10,40.53,42.21C542.08,1123.77,541.13,1119.37,546.17,1087.1Z"/><path class="cls-2" d="M557,977.44c-5,32.27-6.68,34-25.65,26.72,19,7.25,21.56,10,40.53,42.21C552.86,1014.11,551.91,1009.71,557,977.44Z"/><path class="cls-2" d="M512,883.69c5-32.26,6.68-34,25.65-26.72-19-7.25-21.56-9.94-40.53-42.21C516.1,847,517.05,851.43,512,883.69Z"/><path class="cls-2" d="M490.35,884.22c31,5.25,32.61,7,25.65,26.72,7-19.76,9.55-22.46,40.53-42.22C525.55,888.48,521.33,889.47,490.35,884.22Z"/><path class="cls-2" d="M456.65,856.75c26.83,17.68,26.83,20.1,0,37.78,26.83-17.68,30.49-17.68,57.31,0Z"/><path class="cls-2" d="M478.53,807.59c-5,32.27-6.67,34-25.64,26.72,19,7.25,21.55,10,40.52,42.21C474.44,844.26,473.49,839.86,478.53,807.59Z"/><path class="cls-2" d="M490.13,935.74c-5,32.27-6.68,34-25.65,26.72,19,7.25,21.56,9.95,40.53,42.21C486,972.41,485.09,968,490.13,935.74Z"/><path class="cls-2" d="M507,919.69c-31-5.25-32.61-7-25.65-26.72-7,19.76-9.55,22.46-40.52,42.22C471.83,915.43,476.06,914.44,507,919.69Z"/><path class="cls-2" d="M545.49,962.68c-26.83-17.68-26.83-20.09,0-37.78-26.83,17.69-30.49,17.69-57.31,0Z"/><path class="cls-2" d="M523.6,1011.84c5-32.26,6.68-34,25.65-26.72-19-7.25-21.55-9.94-40.52-42.21C527.7,975.18,528.65,979.58,523.6,1011.84Z"/><path class="cls-2" d="M481,1011.05c31,5.25,32.61,7,25.65,26.72,7-19.76,9.55-22.45,40.52-42.21C516.16,1015.32,511.93,1016.3,481,1011.05Z"/><path class="cls-2" d="M518.88,1089.39c-31-5.25-32.61-7-25.65-26.72-7,19.76-9.55,22.46-40.52,42.22C483.68,1085.13,487.91,1084.14,518.88,1089.39Z"/><path class="cls-2" d="M507.58,1061.94c-26.83-17.68-26.83-20.09,0-37.78-26.83,17.69-30.49,17.69-57.31,0Z"/><path class="cls-2" d="M522.88,1093.46c5-32.27,6.68-34,25.64-26.72-19-7.26-21.55-10-40.52-42.22C527,1056.79,527.92,1061.19,522.88,1093.46Z"/><path class="cls-2" d="M493,1147.05c17-27.94,19.29-27.94,36.27,0-17-27.94-17-31.75,0-59.7Z"/><path class="cls-2" d="M445.83,1124.26c31,5.25,32.61,7,25.64,26.72,7-19.76,9.56-22.46,40.53-42.22C481,1128.52,476.8,1129.51,445.83,1124.26Z"/><path class="cls-2" d="M448.17,1073.56c-5,32.27-6.68,34-25.65,26.72,19,7.25,21.56,10,40.53,42.21C444.08,1110.23,443.13,1105.83,448.17,1073.56Z"/><path class="cls-2" d="M459,963.9c-5,32.27-6.68,34-25.65,26.72,19,7.25,21.56,10,40.53,42.21C454.86,1000.57,453.91,996.17,459,963.9Z"/><path class="cls-2" d="M282.52,44.39c-5,32.27-6.68,34-25.64,26.72,19,7.25,21.55,10,40.52,42.21C278.43,81.06,277.48,76.66,282.52,44.39Z"/><path class="cls-2" d="M304.18,43.87c-31-5.26-32.61-7-25.64-26.72C271.57,36.91,269,39.6,238,59.36,269,39.6,273.21,38.61,304.18,43.87Z"/><path class="cls-2" d="M337.88,71.34c-26.82-17.69-26.82-20.1,0-37.79-26.82,17.69-30.48,17.69-57.31,0Z"/><path class="cls-2" d="M316,120.49c5-32.26,6.68-34,25.65-26.71-19-7.26-21.56-10-40.53-42.22C320.09,83.83,321,88.23,316,120.49Z"/><path class="cls-2" d="M267.33,118.05c31,5.25,32.61,7,25.65,26.72,7-19.76,9.55-22.45,40.52-42.21C302.53,122.32,298.3,123.3,267.33,118.05Z"/><path class="cls-2" d="M287.5,8.39c31,5.26,32.61,7,25.65,26.72,7-19.76,9.55-22.45,40.53-42.21C322.7,12.66,318.48,13.65,287.5,8.39Z"/><path class="cls-2" d="M249.05-34.6c26.82,17.69,26.82,20.1,0,37.78,26.82-17.68,30.48-17.68,57.31,0Z"/><path class="cls-2" d="M380.52,57.93c-5,32.27-6.68,34-25.64,26.72,19,7.26,21.55,9.95,40.52,42.22C376.43,94.6,375.48,90.2,380.52,57.93Z"/><path class="cls-2" d="M402.18,57.41c-31-5.25-32.61-7-25.64-26.72C369.57,50.45,367,53.15,336,72.9,367,53.15,371.21,52.16,402.18,57.41Z"/><path class="cls-2" d="M435.88,84.88c-26.82-17.69-26.82-20.1,0-37.79-26.82,17.69-30.48,17.69-57.31,0Z"/><path class="cls-2" d="M435.91,206.5c-26.83-17.68-26.83-20.1,0-37.78-26.83,17.68-30.48,17.68-57.31,0Z"/><path class="cls-2" d="M414,134c5-32.26,6.68-34,25.65-26.71-19-7.26-21.56-9.95-40.53-42.22C418.09,97.37,419,101.77,414,134Z"/><path class="cls-2" d="M365.33,131.59c31,5.26,32.61,7,25.65,26.72,7-19.76,9.55-22.45,40.52-42.21C400.53,135.86,396.3,136.85,365.33,131.59Z"/><path class="cls-2" d="M448,102.92c-5,32.27-6.68,34-25.65,26.72,19,7.26,21.56,10,40.53,42.22C443.89,139.59,442.94,135.19,448,102.92Z"/><path class="cls-2" d="M402.41,5.88c5-32.26,6.67-34,25.64-26.71-19-7.26-21.55-10-40.52-42.22C406.5-30.78,407.45-26.38,402.41,5.88Z"/><path class="cls-2" d="M385.5,21.93c31,5.26,32.61,7,25.65,26.72,7-19.76,9.55-22.45,40.53-42.21C420.7,26.2,416.48,27.19,385.5,21.93Z"/><path class="cls-2" d="M347.05-21.06c26.82,17.69,26.82,20.1,0,37.79C373.87-1,377.53-1,404.36,16.73Z"/><path class="cls-2" d="M282.52,176.68c-5,32.27-6.68,34-25.64,26.72,19,7.25,21.55,9.95,40.52,42.21C278.43,213.35,277.48,209,282.52,176.68Z"/><path class="cls-2" d="M304.18,176.16c-31-5.26-32.61-7-25.64-26.72-7,19.76-9.56,22.45-40.53,42.21C269,171.89,273.21,170.9,304.18,176.16Z"/><path class="cls-2" d="M337.88,203.63c-26.82-17.69-26.82-20.1,0-37.79-26.82,17.69-30.48,17.69-57.31,0Z"/><path class="cls-2" d="M316,252.78c5-32.26,6.68-34,25.65-26.72-19-7.25-21.56-9.94-40.53-42.21C320.09,216.12,321,220.52,316,252.78Z"/><path class="cls-2" d="M287.5,140.68c31,5.25,32.61,7,25.65,26.72,7-19.76,9.55-22.45,40.53-42.21C322.7,145,318.48,145.93,287.5,140.68Z"/><path class="cls-2" d="M402.18,189.7c-31-5.26-32.61-7-25.64-26.72-7,19.76-9.56,22.45-40.53,42.21C367,185.43,371.21,184.44,402.18,189.7Z"/><path class="cls-2" d="M343.08,203.83c26.83,17.68,26.83,20.1,0,37.78,26.83-17.68,30.49-17.68,57.32,0Z"/><path class="cls-2" d="M431.5,315c5.05-32.26,6.68-34,25.65-26.71-19-7.26-21.55-9.95-40.52-42.22C435.6,278.31,436.55,282.71,431.5,315Z"/><path class="cls-2" d="M409.84,315.5c31,5.25,32.62,7,25.65,26.72,7-19.76,9.55-22.46,40.53-42.22C445,319.76,440.82,320.75,409.84,315.5Z"/><path class="cls-2" d="M376.15,288c26.82,17.69,26.82,20.1,0,37.78,26.82-17.68,30.48-17.68,57.31,0Z"/><path class="cls-2" d="M398,238.87c-5,32.27-6.68,34-25.65,26.72,19,7.26,21.55,10,40.52,42.22C393.93,275.54,393,271.14,398,238.87Z"/><path class="cls-2" d="M446.7,241.32c-31-5.26-32.61-7-25.65-26.72-7,19.76-9.55,22.45-40.53,42.21C411.5,237.05,415.72,236.06,446.7,241.32Z"/><path class="cls-2" d="M409.62,367c-5,32.27-6.68,34-25.65,26.72,19,7.25,21.56,9.95,40.53,42.21C405.53,403.69,404.58,399.29,409.62,367Z"/><path class="cls-2" d="M426.53,351c-31-5.25-32.62-7-25.65-26.71-7,19.76-9.55,22.45-40.53,42.21C391.33,346.71,395.55,345.72,426.53,351Z"/><path class="cls-2" d="M465,394c-26.83-17.69-26.83-20.1,0-37.79-26.83,17.69-30.48,17.69-57.31,0Z"/><path class="cls-2" d="M443.1,443.12c5-32.26,6.68-34,25.65-26.71-19-7.26-21.56-10-40.53-42.22C447.19,406.46,448.14,410.86,443.1,443.12Z"/><path class="cls-2" d="M400.45,442.33c31,5.26,32.61,7,25.65,26.72,7-19.76,9.55-22.45,40.53-42.21C435.65,446.6,431.43,447.59,400.45,442.33Z"/><path class="cls-2" d="M438.38,520.67c-31-5.25-32.62-7-25.65-26.71-7,19.75-9.55,22.45-40.53,42.21C403.18,516.41,407.4,515.42,438.38,520.67Z"/><path class="cls-2" d="M427.07,493.23c-26.83-17.69-26.83-20.1,0-37.79-26.83,17.69-30.48,17.69-57.31,0Z"/><path class="cls-2" d="M442.37,524.74c5-32.27,6.68-34,25.65-26.72-19-7.25-21.56-9.95-40.53-42.21C446.46,488.07,447.41,492.47,442.37,524.74Z"/><path class="cls-2" d="M412.51,578.34c17-28,19.29-28,36.27,0-17-28-17-31.76,0-59.7Z"/><path class="cls-2" d="M365.32,555.54c31,5.25,32.61,7,25.65,26.72,7-19.76,9.55-22.45,40.52-42.21C400.52,559.81,396.29,560.79,365.32,555.54Z"/><path class="cls-2" d="M367.66,504.84c-5,32.27-6.68,34-25.65,26.72,19,7.25,21.56,10,40.53,42.21C363.57,541.51,362.62,537.11,367.66,504.84Z"/><path class="cls-2" d="M378.44,395.18c-5,32.27-6.68,34-25.65,26.72,19,7.26,21.56,10,40.53,42.22C374.35,431.85,373.4,427.45,378.44,395.18Z"/><path class="cls-2" d="M333.5,301.43c5.05-32.26,6.68-34,25.65-26.71-19-7.26-21.55-10-40.52-42.22C337.6,264.77,338.55,269.17,333.5,301.43Z"/><path class="cls-2" d="M311.84,302c31,5.25,32.62,7,25.65,26.72,7-19.76,9.55-22.46,40.53-42.22C347,306.22,342.82,307.21,311.84,302Z"/><path class="cls-2" d="M278.15,274.49c26.82,17.69,26.82,20.1,0,37.78,26.82-17.68,30.48-17.68,57.31,0Z"/><path class="cls-2" d="M300,225.33c-5,32.27-6.68,34-25.65,26.72,19,7.25,21.55,9.95,40.52,42.21C295.93,262,295,257.6,300,225.33Z"/><path class="cls-2" d="M311.62,353.48c-5,32.27-6.68,34-25.65,26.72,19,7.25,21.56,9.95,40.53,42.21C307.53,390.15,306.58,385.75,311.62,353.48Z"/><path class="cls-2" d="M328.53,337.43c-31-5.25-32.62-7-25.65-26.72-7,19.76-9.55,22.46-40.53,42.22C293.33,333.17,297.55,332.18,328.53,337.43Z"/><path class="cls-2" d="M367,380.43c-26.83-17.69-26.83-20.1,0-37.79-26.83,17.69-30.48,17.69-57.31,0Z"/><path class="cls-2" d="M345.1,429.58c5-32.26,6.68-34,25.65-26.72-19-7.25-21.56-9.94-40.53-42.21C349.19,392.92,350.14,397.32,345.1,429.58Z"/><path class="cls-2" d="M302.45,428.79c31,5.26,32.61,7,25.65,26.72,7-19.76,9.55-22.45,40.53-42.21C337.65,433.06,333.43,434.05,302.45,428.79Z"/><path class="cls-2" d="M340.38,507.13c-31-5.25-32.62-7-25.65-26.72-7,19.76-9.55,22.46-40.53,42.22C305.18,502.87,309.4,501.88,340.38,507.13Z"/><path class="cls-2" d="M329.07,479.68c-26.83-17.68-26.83-20.09,0-37.78-26.83,17.69-30.48,17.69-57.31,0Z"/><path class="cls-2" d="M344.37,511.2c5-32.27,6.68-34,25.65-26.72-19-7.25-21.56-10-40.53-42.21C348.46,474.53,349.41,478.93,344.37,511.2Z"/><path class="cls-2" d="M314.51,564.79c17-27.94,19.29-27.94,36.27,0-17-27.94-17-31.75,0-59.69Z"/><path class="cls-2" d="M267.32,542c31,5.25,32.61,7,25.65,26.72,7-19.76,9.55-22.46,40.52-42.22C302.52,546.26,298.29,547.25,267.32,542Z"/><path class="cls-2" d="M269.66,491.3c-5,32.27-6.68,34-25.65,26.72,19,7.25,21.56,10,40.53,42.21C265.57,528,264.62,523.57,269.66,491.3Z"/><path class="cls-2" d="M280.44,381.64c-5,32.27-6.68,34-25.65,26.72,19,7.25,21.56,9.95,40.53,42.21C276.35,418.31,275.4,413.91,280.44,381.64Z"/><path class="cls-2" d="M253,113.92c5-32.27,6.68-34,25.65-26.72-19-7.25-21.56-10-40.53-42.21C257.09,77.25,258,81.65,253,113.92Z"/><path class="cls-2" d="M231.34,114.44c31,5.26,32.61,7,25.65,26.72,7-19.76,9.55-22.45,40.52-42.21C266.54,118.71,262.31,119.7,231.34,114.44Z"/><path class="cls-2" d="M197.64,87c26.83,17.69,26.83,20.1,0,37.79,26.83-17.69,30.48-17.69,57.31,0Z"/><path class="cls-2" d="M219.52,37.82c-5,32.26-6.68,34-25.65,26.72,19,7.25,21.56,9.94,40.53,42.21C215.43,74.48,214.48,70.08,219.52,37.82Z"/><path class="cls-2" d="M268.19,40.26c-31-5.25-32.61-7-25.65-26.72C235.58,33.3,233,36,202,55.76,233,36,237.22,35,268.19,40.26Z"/><path class="cls-2" d="M231.12,166c-5.05,32.26-6.68,34-25.65,26.71,19,7.26,21.55,9.95,40.52,42.22C227,202.63,226.07,198.23,231.12,166Z"/><path class="cls-2" d="M248,149.92c-31-5.26-32.61-7-25.65-26.72-7,19.76-9.55,22.45-40.53,42.21C212.82,145.65,217,144.66,248,149.92Z"/><path class="cls-2" d="M286.47,192.91c-26.82-17.69-26.82-20.1,0-37.78-26.82,17.68-30.48,17.68-57.31,0Z"/><path class="cls-2" d="M264.59,242.07c5-32.27,6.68-34,25.65-26.72-19-7.25-21.56-9.95-40.53-42.21C268.68,205.4,269.63,209.8,264.59,242.07Z"/><path class="cls-2" d="M221.94,241.28c31,5.25,32.62,7,25.65,26.71,7-19.75,9.55-22.45,40.53-42.21C257.14,245.54,252.92,246.53,221.94,241.28Z"/><path class="cls-2" d="M259.87,319.62c-31-5.26-32.61-7-25.65-26.72-7,19.76-9.55,22.45-40.53,42.21C224.67,315.35,228.89,314.36,259.87,319.62Z"/><path class="cls-2" d="M248.56,292.17c-26.82-17.69-26.82-20.1,0-37.79-26.82,17.69-30.48,17.69-57.31,0Z"/><path class="cls-2" d="M263.86,323.68c5-32.26,6.68-34,25.65-26.72-19-7.25-21.56-9.94-40.53-42.21C268,287,268.9,291.42,263.86,323.68Z"/><path class="cls-2" d="M234,377.28c17-27.94,19.3-27.94,36.28,0-17-27.94-17-31.76,0-59.7Z"/><path class="cls-2" d="M186.81,354.49c31,5.25,32.61,6.95,25.65,26.71,7-19.76,9.55-22.45,40.53-42.21C222,358.75,217.79,359.74,186.81,354.49Z"/><path class="cls-2" d="M189.15,303.79c-5,32.26-6.68,34-25.64,26.71,19,7.26,21.55,9.95,40.52,42.22C185.06,340.45,184.11,336.05,189.15,303.79Z"/><path class="cls-2" d="M199.94,194.13c-5.05,32.26-6.68,34-25.65,26.72,19,7.25,21.55,9.94,40.52,42.21C195.84,230.79,194.89,226.39,199.94,194.13Z"/><path class="cls-2" d="M155,100.38c5-32.27,6.68-34,25.65-26.72-19-7.25-21.56-9.95-40.53-42.21C159.09,63.71,160,68.11,155,100.38Z"/><path class="cls-2" d="M133.34,100.9c31,5.25,32.61,7,25.65,26.72,7-19.76,9.55-22.45,40.52-42.21C168.54,105.17,164.31,106.15,133.34,100.9Z"/><path class="cls-2" d="M99.64,73.43c26.83,17.69,26.83,20.1,0,37.79,26.83-17.69,30.48-17.69,57.31,0Z"/><path class="cls-2" d="M121.52,24.28c-5,32.26-6.68,34-25.65,26.71,19,7.26,21.56,9.95,40.53,42.22C117.43,60.94,116.48,56.54,121.52,24.28Z"/><path class="cls-2" d="M170.19,26.72c-31-5.25-32.61-7-25.65-26.72-7,19.76-9.55,22.45-40.52,42.21C135,22.45,139.22,21.47,170.19,26.72Z"/><path class="cls-2" d="M133.12,152.43c-5.05,32.26-6.68,34-25.65,26.71,19,7.26,21.55,10,40.52,42.22C129,189.09,128.07,184.69,133.12,152.43Z"/><path class="cls-2" d="M150,136.38c-31-5.26-32.61-7-25.65-26.72-7,19.76-9.55,22.45-40.53,42.21C114.82,132.11,119,131.12,150,136.38Z"/><path class="cls-2" d="M188.47,179.37c-26.82-17.69-26.82-20.1,0-37.78-26.82,17.68-30.48,17.68-57.31,0Z"/><path class="cls-2" d="M166.59,228.53c5-32.27,6.68-34,25.65-26.72-19-7.26-21.56-9.95-40.53-42.22C170.68,191.86,171.63,196.26,166.59,228.53Z"/><path class="cls-2" d="M123.94,227.74c31,5.25,32.62,6.95,25.65,26.71,7-19.76,9.55-22.45,40.53-42.21C159.14,232,154.92,233,123.94,227.74Z"/><path class="cls-2" d="M161.87,306.08c-31-5.26-32.61-7-25.65-26.72-7,19.76-9.55,22.45-40.53,42.21C126.67,301.81,130.89,300.82,161.87,306.08Z"/><path class="cls-2" d="M150.56,278.63c-26.82-17.69-26.82-20.1,0-37.79-26.82,17.69-30.48,17.69-57.31,0Z"/><path class="cls-2" d="M165.86,310.14c5-32.27,6.68-34,25.65-26.72-19-7.25-21.56-9.95-40.53-42.21C170,273.47,170.9,277.87,165.86,310.14Z"/><path class="cls-2" d="M136,363.74c17-27.95,19.3-27.95,36.28,0-17-27.95-17-31.76,0-59.7Z"/><path class="cls-2" d="M88.81,340.94c31,5.26,32.61,7,25.65,26.72,7-19.76,9.55-22.45,40.53-42.21C124,345.21,119.79,346.2,88.81,340.94Z"/><path class="cls-2" d="M91.15,290.25c-5,32.26-6.68,34-25.64,26.71,19,7.26,21.55,10,40.52,42.22C87.06,326.91,86.11,322.51,91.15,290.25Z"/><path class="cls-2" d="M101.94,180.59c-5,32.26-6.68,34-25.65,26.71,19,7.26,21.55,9.95,40.52,42.22C97.84,217.25,96.89,212.85,101.94,180.59Z"/><path class="cls-2" d="M104,626.65c-5,32.27-6.68,34-25.65,26.72,19,7.25,21.55,10,40.52,42.21C99.92,663.32,99,658.92,104,626.65Z"/><path class="cls-2" d="M125.68,626.13c-31-5.26-32.62-7-25.65-26.72-7,19.76-9.55,22.45-40.53,42.21C90.48,621.86,94.7,620.87,125.68,626.13Z"/><path class="cls-2" d="M159.38,653.6c-26.83-17.69-26.83-20.1,0-37.79-26.83,17.69-30.49,17.69-57.32,0Z"/><path class="cls-2" d="M137.49,702.75c5-32.26,6.68-34,25.65-26.72-19-7.25-21.55-9.94-40.52-42.21C141.59,666.09,142.54,670.49,137.49,702.75Z"/><path class="cls-2" d="M88.82,700.31c31,5.25,32.61,7,25.65,26.72,7-19.76,9.55-22.46,40.53-42.21C124,704.57,119.8,705.56,88.82,700.31Z"/><path class="cls-2" d="M125.9,574.6c5-32.26,6.68-34,25.65-26.71-19-7.26-21.56-9.95-40.53-42.22C130,537.94,130.94,542.34,125.9,574.6Z"/><path class="cls-2" d="M109,590.65c31,5.26,32.62,7,25.65,26.72,7-19.76,9.55-22.45,40.53-42.21C144.19,594.92,140,595.91,109,590.65Z"/><path class="cls-2" d="M70.54,547.66c26.83,17.69,26.83,20.1,0,37.78,26.83-17.68,30.49-17.68,57.31,0Z"/><path class="cls-2" d="M92.42,498.5c-5,32.27-6.68,34-25.65,26.72,19,7.25,21.56,9.95,40.53,42.21C88.33,535.17,87.38,530.77,92.42,498.5Z"/><path class="cls-2" d="M135.07,499.29c-31-5.25-32.61-7-25.65-26.71-7,19.75-9.55,22.45-40.52,42.21C99.87,495,104.09,494,135.07,499.29Z"/><path class="cls-2" d="M97.15,421c31,5.26,32.61,7,25.64,26.72,7-19.76,9.55-22.45,40.53-42.21C132.34,425.22,128.12,426.21,97.15,421Z"/><path class="cls-2" d="M108.45,448.4c26.83,17.69,26.83,20.1,0,37.79,26.83-17.69,30.48-17.69,57.31,0Z"/><path class="cls-2" d="M93.15,416.89c-5,32.26-6.68,34-25.65,26.72,19,7.25,21.56,9.94,40.53,42.21C89.06,453.55,88.11,449.15,93.15,416.89Z"/><path class="cls-2" d="M123,363.29c-17,27.94-19.29,27.94-36.27,0,17,27.94,17,31.76,0,59.7Z"/><path class="cls-2" d="M170.2,386.08c-31-5.25-32.61-6.95-25.65-26.71-7,19.76-9.55,22.45-40.52,42.21C135,381.82,139.23,380.83,170.2,386.08Z"/><path class="cls-2" d="M167.86,436.78c5-32.26,6.68-34,25.65-26.71-19-7.26-21.56-9.95-40.53-42.22C172,400.12,172.9,404.52,167.86,436.78Z"/><path class="cls-2" d="M157.08,546.44c5-32.26,6.68-34,25.65-26.72-19-7.25-21.56-9.94-40.53-42.21C161.17,509.78,162.12,514.18,157.08,546.44Z"/><path class="cls-2" d="M202,640.19c-5.05,32.27-6.68,34-25.65,26.72,19,7.25,21.55,10,40.52,42.21C197.92,676.86,197,672.46,202,640.19Z"/><path class="cls-2" d="M223.68,639.67c-31-5.25-32.62-7-25.65-26.72-7,19.76-9.55,22.45-40.53,42.21C188.48,635.4,192.7,634.42,223.68,639.67Z"/><path class="cls-2" d="M257.38,667.14c-26.83-17.69-26.83-20.1,0-37.79-26.83,17.69-30.49,17.69-57.32,0Z"/><path class="cls-2" d="M257.4,788.76c-26.82-17.68-26.82-20.1,0-37.78-26.82,17.68-30.48,17.68-57.31,0Z"/><path class="cls-2" d="M235.49,716.29c5-32.26,6.68-34,25.65-26.71-19-7.26-21.55-10-40.52-42.22C239.59,679.63,240.54,684,235.49,716.29Z"/><path class="cls-2" d="M186.82,713.85c31,5.26,32.61,7,25.65,26.72,7-19.76,9.55-22.45,40.53-42.21C222,718.12,217.8,719.11,186.82,713.85Z"/><path class="cls-2" d="M269.47,685.18c-5,32.27-6.68,34-25.65,26.72,19,7.25,21.56,10,40.53,42.21C265.38,721.85,264.43,717.45,269.47,685.18Z"/><path class="cls-2" d="M223.9,588.14c5-32.26,6.68-34,25.65-26.71-19-7.26-21.56-9.95-40.53-42.22C228,551.48,228.94,555.88,223.9,588.14Z"/><path class="cls-2" d="M207,604.19c31,5.26,32.62,7,25.65,26.72,7-19.76,9.55-22.45,40.53-42.21C242.19,608.46,238,609.45,207,604.19Z"/><path class="cls-2" d="M168.54,561.2c26.83,17.69,26.83,20.1,0,37.79,26.83-17.69,30.49-17.69,57.31,0Z"/><path class="cls-2" d="M104,758.94c-5,32.27-6.68,34-25.65,26.72,19,7.25,21.55,10,40.52,42.21C99.92,795.61,99,791.21,104,758.94Z"/><path class="cls-2" d="M125.68,758.42c-31-5.26-32.62-7-25.65-26.72-7,19.76-9.55,22.45-40.53,42.21C90.48,754.15,94.7,753.16,125.68,758.42Z"/><path class="cls-2" d="M159.38,785.88c-26.83-17.68-26.83-20.09,0-37.78-26.83,17.69-30.49,17.69-57.32,0Z"/><path class="cls-2" d="M137.49,835c5-32.27,6.68-34,25.65-26.72-19-7.25-21.55-9.94-40.52-42.21C141.59,798.38,142.54,802.77,137.49,835Z"/><path class="cls-2" d="M109,722.94c31,5.25,32.62,7,25.65,26.72,7-19.76,9.55-22.46,40.53-42.21C144.19,727.2,140,728.19,109,722.94Z"/><path class="cls-2" d="M223.68,772c-31-5.26-32.62-7-25.65-26.72-7,19.76-9.55,22.45-40.53,42.21C188.48,767.69,192.7,766.7,223.68,772Z"/><path class="cls-2" d="M164.58,786.09c26.82,17.68,26.82,20.1,0,37.78,26.82-17.68,30.48-17.68,57.31,0Z"/><path class="cls-2" d="M190.42,512c-5,32.27-6.68,34-25.65,26.72,19,7.26,21.56,10,40.53,42.22C186.33,548.71,185.38,544.31,190.42,512Z"/><path class="cls-2" d="M233.07,512.83c-31-5.25-32.61-7-25.65-26.71-7,19.76-9.55,22.45-40.52,42.21C197.87,508.57,202.09,507.58,233.07,512.83Z"/><path class="cls-2" d="M195.15,434.5c31,5.25,32.61,6.95,25.64,26.71,7-19.76,9.55-22.45,40.53-42.21C230.34,438.76,226.12,439.75,195.15,434.5Z"/><path class="cls-2" d="M206.45,461.94c26.83,17.69,26.83,20.1,0,37.79,26.83-17.69,30.48-17.69,57.31,0Z"/><path class="cls-2" d="M191.15,430.43c-5,32.27-6.68,34-25.65,26.72,19,7.25,21.56,10,40.53,42.21C187.06,467.1,186.11,462.7,191.15,430.43Z"/><path class="cls-2" d="M221,376.83c-17,27.95-19.29,27.95-36.27,0,17,27.95,17,31.76,0,59.7Z"/><path class="cls-2" d="M268.2,399.63c-31-5.26-32.61-7-25.65-26.72-7,19.76-9.55,22.45-40.52,42.21C233,395.36,237.23,394.37,268.2,399.63Z"/><path class="cls-2" d="M265.86,450.32c5-32.26,6.68-34,25.65-26.71-19-7.26-21.56-9.95-40.53-42.22C270,413.66,270.9,418.06,265.86,450.32Z"/><path class="cls-2" d="M255.08,560c5-32.26,6.68-34,25.65-26.71-19-7.26-21.56-9.95-40.53-42.22C259.17,523.32,260.12,527.72,255.08,560Z"/><path class="cls-2" d="M253,897.23c5-32.26,6.68-34,25.65-26.71-19-7.26-21.56-9.95-40.53-42.22C257.09,860.57,258,865,253,897.23Z"/><path class="cls-2" d="M231.34,897.76c31,5.25,32.61,7,25.65,26.72,7-19.76,9.55-22.46,40.52-42.22C266.54,902,262.31,903,231.34,897.76Z"/><path class="cls-2" d="M197.64,870.29c26.83,17.69,26.83,20.1,0,37.78,26.83-17.68,30.48-17.68,57.31,0Z"/><path class="cls-2" d="M219.52,821.13c-5,32.27-6.68,34-25.65,26.72,19,7.25,21.56,9.95,40.53,42.21C215.43,857.8,214.48,853.4,219.52,821.13Z"/><path class="cls-2" d="M268.19,823.57c-31-5.25-32.61-7-25.65-26.71-7,19.76-9.55,22.45-40.52,42.21C233,819.31,237.22,818.32,268.19,823.57Z"/><path class="cls-2" d="M231.12,949.28c-5.05,32.27-6.68,34-25.65,26.72,19,7.25,21.55,10,40.52,42.21C227,986,226.07,981.55,231.12,949.28Z"/><path class="cls-2" d="M248,933.23c-31-5.25-32.61-7-25.65-26.71-7,19.76-9.55,22.45-40.53,42.21C212.82,929,217,928,248,933.23Z"/><path class="cls-2" d="M286.47,976.23c-26.82-17.69-26.82-20.1,0-37.79-26.82,17.69-30.48,17.69-57.31,0Z"/><path class="cls-2" d="M264.59,1025.38c5-32.26,6.68-34,25.65-26.72-19-7.25-21.56-9.94-40.53-42.21C268.68,988.72,269.63,993.12,264.59,1025.38Z"/><path class="cls-2" d="M221.94,1024.59c31,5.26,32.62,7,25.65,26.72,7-19.76,9.55-22.45,40.53-42.21C257.14,1028.86,252.92,1029.85,221.94,1024.59Z"/><path class="cls-2" d="M259.87,1102.93c-31-5.25-32.61-7-25.65-26.72-7,19.76-9.55,22.46-40.53,42.22C224.67,1098.67,228.89,1097.68,259.87,1102.93Z"/><path class="cls-2" d="M248.56,1075.48c-26.82-17.68-26.82-20.09,0-37.78-26.82,17.69-30.48,17.69-57.31,0Z"/><path class="cls-2" d="M263.86,1107c5-32.27,6.68-34,25.65-26.72-19-7.25-21.56-10-40.53-42.21C268,1070.33,268.9,1074.73,263.86,1107Z"/><path class="cls-2" d="M234,1160.6c17-27.95,19.3-27.95,36.28,0-17-27.95-17-31.76,0-59.7Z"/><path class="cls-2" d="M186.81,1137.8c31,5.25,32.61,7,25.65,26.72,7-19.76,9.55-22.46,40.53-42.21C222,1142.06,217.79,1143.05,186.81,1137.8Z"/><path class="cls-2" d="M189.15,1087.1c-5,32.27-6.68,34-25.64,26.72,19,7.25,21.55,10,40.52,42.21C185.06,1123.77,184.11,1119.37,189.15,1087.1Z"/><path class="cls-2" d="M199.94,977.44c-5.05,32.27-6.68,34-25.65,26.72,19,7.25,21.55,10,40.52,42.21C195.84,1014.11,194.89,1009.71,199.94,977.44Z"/><path class="cls-2" d="M155,883.69c5-32.26,6.68-34,25.65-26.72-19-7.25-21.56-9.94-40.53-42.21C159.09,847,160,851.43,155,883.69Z"/><path class="cls-2" d="M133.34,884.22c31,5.25,32.61,7,25.65,26.72,7-19.76,9.55-22.46,40.52-42.22C168.54,888.48,164.31,889.47,133.34,884.22Z"/><path class="cls-2" d="M99.64,856.75c26.83,17.68,26.83,20.1,0,37.78,26.83-17.68,30.48-17.68,57.31,0Z"/><path class="cls-2" d="M121.52,807.59c-5,32.27-6.68,34-25.65,26.72,19,7.25,21.56,10,40.53,42.21C117.43,844.26,116.48,839.86,121.52,807.59Z"/><path class="cls-2" d="M133.12,935.74c-5.05,32.27-6.68,34-25.65,26.72,19,7.25,21.55,9.95,40.52,42.21C129,972.41,128.07,968,133.12,935.74Z"/><path class="cls-2" d="M150,919.69c-31-5.25-32.61-7-25.65-26.72-7,19.76-9.55,22.46-40.53,42.22C114.82,915.43,119,914.44,150,919.69Z"/><path class="cls-2" d="M188.47,962.68c-26.82-17.68-26.82-20.09,0-37.78-26.82,17.69-30.48,17.69-57.31,0Z"/><path class="cls-2" d="M166.59,1011.84c5-32.26,6.68-34,25.65-26.72-19-7.25-21.56-9.94-40.53-42.21C170.68,975.18,171.63,979.58,166.59,1011.84Z"/><path class="cls-2" d="M123.94,1011.05c31,5.25,32.62,7,25.65,26.72,7-19.76,9.55-22.45,40.53-42.21C159.14,1015.32,154.92,1016.3,123.94,1011.05Z"/><path class="cls-2" d="M161.87,1089.39c-31-5.25-32.61-7-25.65-26.72-7,19.76-9.55,22.46-40.53,42.22C126.67,1085.13,130.89,1084.14,161.87,1089.39Z"/><path class="cls-2" d="M150.56,1061.94c-26.82-17.68-26.82-20.09,0-37.78-26.82,17.69-30.48,17.69-57.31,0Z"/><path class="cls-2" d="M165.86,1093.46c5-32.27,6.68-34,25.65-26.72-19-7.26-21.56-10-40.53-42.22C170,1056.79,170.9,1061.19,165.86,1093.46Z"/><path class="cls-2" d="M136,1147.05c17-27.94,19.3-27.94,36.28,0-17-27.94-17-31.75,0-59.7Z"/><path class="cls-2" d="M88.81,1124.26c31,5.25,32.61,7,25.65,26.72,7-19.76,9.55-22.46,40.53-42.22C124,1128.52,119.79,1129.51,88.81,1124.26Z"/><path class="cls-2" d="M91.15,1073.56c-5,32.27-6.68,34-25.64,26.72,19,7.25,21.55,10,40.52,42.21C87.06,1110.23,86.11,1105.83,91.15,1073.56Z"/><path class="cls-2" d="M101.94,963.9c-5,32.27-6.68,34-25.65,26.72,19,7.25,21.55,10,40.52,42.21C97.84,1000.57,96.89,996.17,101.94,963.9Z"/><path class="cls-2" d="M23.51,57.93c-5,32.27-6.68,34-25.65,26.72,19,7.26,21.56,9.95,40.53,42.22C19.42,94.6,18.47,90.2,23.51,57.93Z"/><path class="cls-2" d="M45.17,57.41c-31-5.25-32.61-7-25.65-26.72C12.56,50.45,10,53.15-21,72.9,10,53.15,14.19,52.16,45.17,57.41Z"/><path class="cls-2" d="M78.87,84.88C52,67.19,52,64.78,78.87,47.09,52,64.78,48.38,64.78,21.56,47.09Z"/><path class="cls-2" d="M78.9,206.5c-26.83-17.68-26.83-20.1,0-37.78-26.83,17.68-30.49,17.68-57.32,0Z"/><path class="cls-2" d="M57,134c5-32.26,6.68-34,25.65-26.71-19-7.26-21.56-9.95-40.53-42.22C61.08,97.37,62,101.77,57,134Z"/><path class="cls-2" d="M8.31,131.59c31,5.26,32.62,7,25.65,26.72,7-19.76,9.55-22.45,40.53-42.21C43.51,135.86,39.29,136.85,8.31,131.59Z"/><path class="cls-2" d="M91,102.92c-5,32.27-6.68,34-25.65,26.72,19,7.26,21.55,10,40.52,42.22C86.87,139.59,85.92,135.19,91,102.92Z"/><path class="cls-2" d="M45.39,5.88c5-32.26,6.68-34,25.65-26.71-19-7.26-21.56-10-40.53-42.22C49.48-30.78,50.43-26.38,45.39,5.88Z"/><path class="cls-2" d="M28.49,21.93c31,5.26,32.61,7,25.65,26.72,7-19.76,9.55-22.45,40.52-42.21C63.69,26.2,59.46,27.19,28.49,21.93Z"/><path class="cls-2" d="M-10-21.06C16.86-3.37,16.86-1-10,16.73,16.86-1,20.52-1,47.35,16.73Z"/><path class="cls-2" d="M45.17,189.7c-31-5.26-32.61-7-25.65-26.72-7,19.76-9.55,22.45-40.52,42.21C10,185.43,14.19,184.44,45.17,189.7Z"/><path class="cls-2" d="M-13.93,203.83c26.83,17.68,26.83,20.1,0,37.78,26.83-17.68,30.48-17.68,57.31,0Z"/><path class="cls-2" d="M74.49,315c5-32.26,6.68-34,25.65-26.71-19-7.26-21.56-9.95-40.53-42.22C78.58,278.31,79.53,282.71,74.49,315Z"/><path class="cls-2" d="M52.83,315.5c31,5.25,32.61,7,25.65,26.72C85.44,322.46,88,319.76,119,300,88,319.76,83.8,320.75,52.83,315.5Z"/><path class="cls-2" d="M19.13,288c26.83,17.69,26.83,20.1,0,37.78,26.83-17.68,30.49-17.68,57.31,0Z"/><path class="cls-2" d="M41,238.87c-5,32.27-6.68,34-25.65,26.72,19,7.26,21.56,10,40.53,42.22C36.92,275.54,36,271.14,41,238.87Z"/><path class="cls-2" d="M89.69,241.32c-31-5.26-32.62-7-25.65-26.72-7,19.76-9.55,22.45-40.53,42.21C54.49,237.05,58.71,236.06,89.69,241.32Z"/><path class="cls-2" d="M52.61,367c-5,32.27-6.68,34-25.65,26.72,19,7.25,21.56,9.95,40.53,42.21C48.52,403.69,47.57,399.29,52.61,367Z"/><path class="cls-2" d="M69.51,351c-31-5.25-32.61-7-25.65-26.71-7,19.76-9.55,22.45-40.52,42.21C34.31,346.71,38.54,345.72,69.51,351Z"/><path class="cls-2" d="M108,394c-26.83-17.69-26.83-20.1,0-37.79-26.83,17.69-30.49,17.69-57.32,0Z"/><path class="cls-2" d="M86.08,443.12c5-32.26,6.68-34,25.65-26.71-19-7.26-21.55-10-40.52-42.22C90.18,406.46,91.13,410.86,86.08,443.12Z"/><path class="cls-2" d="M43.44,442.33c31,5.26,32.61,7,25.65,26.72,7-19.76,9.55-22.45,40.52-42.21C78.64,446.6,74.41,447.59,43.44,442.33Z"/><path class="cls-2" d="M81.36,520.67c-31-5.25-32.61-7-25.65-26.71-7,19.75-9.55,22.45-40.52,42.21C46.16,516.41,50.39,515.42,81.36,520.67Z"/><path class="cls-2" d="M70.06,493.23c-26.83-17.69-26.83-20.1,0-37.79-26.83,17.69-30.49,17.69-57.32,0Z"/><path class="cls-2" d="M85.35,524.74C90.4,492.47,92,490.77,111,498c-19-7.25-21.55-9.95-40.52-42.21C89.45,488.07,90.4,492.47,85.35,524.74Z"/><path class="cls-2" d="M55.5,578.34c17-28,19.29-28,36.27,0-17-28-17-31.76,0-59.7Z"/><path class="cls-2" d="M8.3,555.54c31,5.25,32.62,7,25.65,26.72,7-19.76,9.55-22.45,40.53-42.21C43.5,559.81,39.28,560.79,8.3,555.54Z"/><path class="cls-2" d="M10.65,504.84C5.6,537.11,4,538.81-15,531.56c19,7.25,21.55,10,40.52,42.21C6.55,541.51,5.6,537.11,10.65,504.84Z"/><path class="cls-2" d="M21.43,395.18c-5,32.27-6.68,34-25.65,26.72,19,7.26,21.56,10,40.53,42.22C17.34,431.85,16.39,427.45,21.43,395.18Z"/><path class="cls-2" d="M-23.51,301.43c5-32.26,6.68-34,25.65-26.71-19-7.26-21.56-10-40.53-42.22C-19.42,264.77-18.47,269.17-23.51,301.43Z"/><path class="cls-2" d="M-45.17,302c31,5.25,32.61,7,25.65,26.72,7-19.76,9.55-22.46,40.52-42.22C-10,306.22-14.2,307.21-45.17,302Z"/><path class="cls-2" d="M10,380.43c-26.83-17.69-26.83-20.1,0-37.79-26.83,17.69-30.49,17.69-57.32,0Z"/><path class="cls-2" d="M-11.92,429.58c5.05-32.26,6.68-34,25.65-26.72-19-7.25-21.55-9.94-40.52-42.21C-7.82,392.92-6.87,397.32-11.92,429.58Z"/><path class="cls-2" d="M-54.56,428.79c31,5.26,32.61,7,25.65,26.72,7-19.76,9.55-22.45,40.52-42.21C-19.36,433.06-23.59,434.05-54.56,428.79Z"/><path class="cls-2" d="M-12.65,511.2C-7.6,478.93-6,477.23,13,484.48c-19-7.25-21.55-10-40.52-42.21C-8.55,474.53-7.6,478.93-12.65,511.2Z"/></pattern></defs><title>fon1</title><polyline class="cls-3" points="1800 0 1800 450 0 450 0 0"/><polyline class="cls-4" points="1800 0 1800.5 450 0.5 450 0 0"/></svg>