<svg id="Слой_1" data-name="Слой 1" xmlns="http://www.w3.org/2000/svg" xmlns:xlink="http://www.w3.org/1999/xlink" viewBox="0 0 1800.35 207.65"><defs><style>.cls-1{fill:url(#Gradient_bez_nazwy_5);}.cls-2{fill:#433388;}.cls-3{fill:url(#Gradient_bez_nazwy_5-2);}.cls-4{fill:url(#Gradient_bez_nazwy_5-3);}.cls-5{fill:none;stroke:#9a4966;stroke-miterlimit:10;stroke-width:3px;opacity:0.25;}</style><linearGradient id="Gradient_bez_nazwy_5" x1="9612.94" y1="-4761.27" x2="9729.17" y2="-4761.27" gradientTransform="translate(-3888.11 -9503.36) rotate(90)" gradientUnits="userSpaceOnUse"><stop offset="0" stop-color="#e6ac4a"/><stop offset="0.09" stop-color="#dd902f"/><stop offset="0.14" stop-color="#d6732f"/><stop offset="0.18" stop-color="#d15a2f"/><stop offset="0.25" stop-color="#b73c30"/><stop offset="0.31" stop-color="#a22330"/><stop offset="0.4" stop-color="#bd0b6d"/><stop offset="0.45" stop-color="#c80186"/><stop offset="0.52" stop-color="#951d88"/><stop offset="0.56" stop-color="#7c2b89"/><stop offset="0.58" stop-color="#772a86"/><stop offset="0.61" stop-color="#69267c"/><stop offset="0.65" stop-color="#51206b"/><stop offset="0.68" stop-color="#381a5a"/><stop offset="0.79" stop-color="#333b8a"/><stop offset="0.89" stop-color="#4981c3"/><stop offset="1" stop-color="#55967b"/></linearGradient><linearGradient id="Gradient_bez_nazwy_5-2" x1="9548.09" y1="-4867.28" x2="9667.36" y2="-4867.28" xlink:href="#Gradient_bez_nazwy_5"/><linearGradient id="Gradient_bez_nazwy_5-3" x1="9521.51" y1="-4830.59" x2="9637.99" y2="-4830.59" xlink:href="#Gradient_bez_nazwy_5"/></defs><title>fon6</title><path class="cls-1" d="M1297.08,141.82c-84.7-2.27-86.83,77.13-171.53,74.86S1043,135,958.29,132.74s-86.83,77.13-171.53,74.86-82.58-81.67-167.28-83.94S532.66,200.79,448,198.52s-82.57-81.67-167.27-83.94-86.83,77.14-171.53,74.87c-53-1.42-72-33-99.5-57a1.87,1.87,0,0,1-.05-2.81l0,0a1.93,1.93,0,0,1,2.57,0c26.29,23.72,45.72,53.55,97.17,54.93,84.7,2.27,86.82-77.14,171.52-74.87s82.57,81.67,167.27,83.94S535,116.44,619.7,118.71,702.27,200.38,787,202.65s86.83-77.13,171.52-74.86,82.58,81.67,167.28,83.94,86.82-77.13,171.52-74.86,82.57,81.67,167.26,83.94,86.82-77.13,171.52-74.86c53.7,1.43,72.47,33.8,100.6,57.93a1.8,1.8,0,0,1-.08,2.82l-.19.16a1.81,1.81,0,0,1-2.32-.09c-26.82-23.86-46.11-54.48-98.18-55.87-84.71-2.27-86.83,77.13-171.54,74.86S1381.78,144.09,1297.08,141.82Z" transform="translate(-9 -18.15)"/><path class="cls-2" d="M1575.93,178.65c-1.75-.05-3.44-.16-5.09-.31,26.71-22.71,41.66-60.48,87.05-59.26a76.21,76.21,0,0,1,7.78.61C1638.23,142.41,1622.74,179.9,1575.93,178.65Zm107.36-54a67.78,67.78,0,0,1,15.41,9.72c9.16,7.58,16.46,17.08,23.75,26.39,5.8,7.39,11.35,15.1,18,21.74,8.52,8.47,20.5,17.45,33.18,13.45,11.66-3.68,19-17.24,16.62-32.31-2.71-17.13-16-27.53-27.93-38.78-13.58-12.8-29.8-21.44-48.76-21.95-21-.56-35.63,6.65-47.92,16.82C1668,117.75,1680.74,123.47,1683.29,124.61ZM1171.42,88.35c-21.23-.57-36,6.83-48.41,17.22a73.23,73.23,0,0,1,11.07-.53c65.48,1.76,63.35,81.16,128.82,82.91,20,.54,34.16-6.54,46-16.57-1.32,0-2.65,0-4,0C1237.07,169.57,1239.2,90.16,1171.42,88.35ZM790.87,152.07c24.67-9.94,38.53-33.27,57.33-50.5C822.9,110.47,809.16,134.19,790.87,152.07Zm-28.21,4.78C694.89,155,697,75.63,629.25,73.82,597.34,73,580,90.11,563.48,108.3c12-10.41,26.28-17.84,46.82-17.29,65.48,1.75,63.35,81.15,128.82,82.91,23.42.63,38.74-9.14,51.75-21.85A69.12,69.12,0,0,1,762.66,156.85ZM543.37,129.4c-13.08,11.91-28.59,20.81-51.8,20.19-67.78-1.82-65.65-81.22-133.42-83s-69.91,77.59-137.69,75.77c-29.76-.79-46.11-16.67-60.83-34.34a6.58,6.58,0,0,0-9.34-.79l-.1.08a6.57,6.57,0,0,0-.91,9c16.39,21,32.05,42.67,66.07,43.58C280.82,161.64,283,82.23,348.42,84s63.34,81.16,128.81,82.91C509.71,167.77,526.6,148.66,543.37,129.4Zm490.38,34.72c-67.77-1.82-65.64-81.22-133.42-83-23.41-.62-39,8.44-52.13,20.49a66.17,66.17,0,0,1,24-3.55c65.48,1.76,63.35,81.16,128.82,82.92,20.86.55,35.28-7.13,47.38-17.79A76,76,0,0,1,1033.75,164.12Zm408.77-68.51c-20.7-.55-35.27,6.47-47.46,16.44h.92c65.47,1.75,63.34,81.16,128.82,82.91,20.09.54,34.22-6.57,46-16.63C1508.23,172.78,1508.54,97.38,1442.52,95.61Zm-133.65,75.77c44-.95,59.26-37.32,86.19-59.33C1350.36,111.37,1335.43,148.83,1308.87,171.38Zm-260.48-8.23c35.56-6,50.55-37.4,74.62-57.58C1086.73,110.14,1072,142.33,1048.39,163.15Z" transform="translate(-9 -18.15)"/><path class="cls-3" d="M1460.21,80.94c-67.77-1.82-69.9,77.58-137.67,75.77s-65.65-81.22-133.42-83-69.9,77.59-137.67,75.77S985.8,68.22,918,66.41,848.13,144,780.36,142.18,714.71,61,646.94,59.14,577,136.73,509.27,134.91s-65.65-81.21-133.42-83S306,129.47,238.19,127.65l-1.14,0c-21.82-.87-39.36-11.44-53.73-27.31-6.58-7.26-12.49-15.09-18.8-22.58-2.63-3.13-5.31-6.21-8.17-9.13-2-2.06-6.63-4.9-7.29-7.86s3-3.73,4.95-2.29,3.12,3.54,4.71,5.26c2.9,3.15,5.67,6.42,8.4,9.73C172.51,80,177.72,86.7,183.42,93c14.69,16.25,32.64,26.93,55,27.53,67.79,1.81,69.91-77.59,137.7-75.77s65.64,81.22,133.41,83S579.43,50.2,647.2,52s65.64,81.22,133.42,83,69.9-77.59,137.67-75.77,65.64,81.21,133.42,83,69.9-77.59,137.67-75.77,65.65,81.22,133.42,83S1392.7,72,1460.47,73.81s65.64,81.22,133.41,83,69.9-77.59,137.67-75.77c27.51.74,43.48,14.22,57.27,30.11a63.36,63.36,0,0,0,7.53,9c4.08,5,8.12,10.08,12.37,14.9a2.52,2.52,0,0,1-.43,3.73,2.47,2.47,0,0,1-3.22-.57c-19.14-22.74-35.12-49-73.75-50.09-67.78-1.81-69.91,77.59-137.69,75.77S1528,82.75,1460.21,80.94Z" transform="translate(-9 -18.15)"/><path class="cls-4" d="M1503.16,50.08c-94.89-2.54-97,76.86-191.91,74.32s-92.76-81.95-187.65-84.49-97,76.86-191.91,74.32S838.93,32.28,744,29.74s-97,76.86-191.9,74.32S459.38,22.11,364.49,19.57s-97,76.86-191.91,74.32c-35.14-1-57-12.43-75.36-26.65.2-.32.4-.65.59-1,18.29,14,40.05,25.35,74.9,26.28,94.89,2.55,97-76.86,191.91-74.32s92.75,81.95,187.64,84.49,97-76.86,191.91-74.31,92.76,81.94,187.65,84.48,97-76.86,191.9-74.31,92.77,81.94,187.66,84.48,97-76.86,191.9-74.31,92.76,81.94,187.64,84.49c47.66,1.27,71.92-18.12,96.28-37.43.18.29.35.58.53.86-24.58,19.47-48.84,39.21-96.91,37.92C1595.92,132,1598.05,52.62,1503.16,50.08Z" transform="translate(-9 -18.15)"/><polyline class="cls-5" points="183.99 86.86 168.99 71.86 183.99 56.86"/></svg>