<svg id="Слой_1" data-name="Слой 1" xmlns="http://www.w3.org/2000/svg" xmlns:xlink="http://www.w3.org/1999/xlink" viewBox="0 0 1800 731.93"><defs><style>.cls-1{fill:#e4b84c;}.cls-2{fill:#272425;}.cls-3{fill:url(#Gradient_bez_nazwy_8);}.cls-4{fill:#552e67;}.cls-5{fill:#c295bd;}.cls-6{fill:#f1e2e4;}.cls-7{fill:#7f8082;}.cls-8{fill:url(#Gradient_bez_nazwy_4);}.cls-9{fill:url(#Gradient_bez_nazwy_4-2);}.cls-10{fill:url(#Gradient_bez_nazwy_4-3);}.cls-11{fill:#59595b;}.cls-12{fill:#fff;}.cls-13{fill:url(#Gradient_bez_nazwy_7);}.cls-14{fill:#dc9e2d;}.cls-15{fill:url(#Gradient_bez_nazwy_4-4);}.cls-16{fill:url(#Gradient_bez_nazwy_4-5);}.cls-17{fill:url(#Gradient_bez_nazwy_5);}.cls-18{fill:url(#Gradient_bez_nazwy_5-2);}.cls-19{fill:none;}</style><linearGradient id="Gradient_bez_nazwy_8" x1="383" y1="-2182.87" x2="1017.69" y2="-2182.87" gradientTransform="translate(1941.3 1927.77) rotate(-45)" gradientUnits="userSpaceOnUse"><stop offset="0" stop-color="#e6ac4a"/><stop offset="0.42" stop-color="#d15a2f"/><stop offset="0.43" stop-color="#d15831"/><stop offset="0.82" stop-color="#ca1a6e"/><stop offset="1" stop-color="#c80186"/></linearGradient><linearGradient id="Gradient_bez_nazwy_4" x1="1029.9" y1="116.05" x2="1323.5" y2="116.05" gradientUnits="userSpaceOnUse"><stop offset="0" stop-color="#c790bb"/><stop offset="0.5" stop-color="#fbf5af"/><stop offset="1" stop-color="#93cbd1"/></linearGradient><linearGradient id="Gradient_bez_nazwy_4-2" x1="1029.92" y1="56.32" x2="1323.52" y2="56.32" xlink:href="#Gradient_bez_nazwy_4"/><linearGradient id="Gradient_bez_nazwy_4-3" x1="766.25" y1="-1484.23" x2="899.41" y2="-1484.23" gradientTransform="translate(1941.3 1927.77) rotate(-45)" xlink:href="#Gradient_bez_nazwy_4"/><linearGradient id="Gradient_bez_nazwy_7" x1="1279.41" y1="172.22" x2="1631.64" y2="-180.01" gradientTransform="translate(-95.8 0.61)" gradientUnits="userSpaceOnUse"><stop offset="0.24" stop-color="#381a5a"/><stop offset="1" stop-color="#55967b"/></linearGradient><linearGradient id="Gradient_bez_nazwy_4-4" x1="647.21" y1="-1659.82" x2="1202.34" y2="-1659.82" gradientTransform="translate(1941.3 1927.77) rotate(-45)" xlink:href="#Gradient_bez_nazwy_4"/><linearGradient id="Gradient_bez_nazwy_4-5" x1="647.21" y1="-1575.25" x2="1202.34" y2="-1575.25" gradientTransform="translate(1941.3 1927.77) rotate(-45)" xlink:href="#Gradient_bez_nazwy_4"/><linearGradient id="Gradient_bez_nazwy_5" x1="189.01" y1="-1983.56" x2="813.93" y2="-1983.56" gradientTransform="translate(1941.3 1927.77) rotate(-45)" gradientUnits="userSpaceOnUse"><stop offset="0" stop-color="#e6ac4a"/><stop offset="0.09" stop-color="#dd902f"/><stop offset="0.14" stop-color="#d6732f"/><stop offset="0.18" stop-color="#d15a2f"/><stop offset="0.25" stop-color="#b73c30"/><stop offset="0.31" stop-color="#a22330"/><stop offset="0.4" stop-color="#bd0b6d"/><stop offset="0.45" stop-color="#c80186"/><stop offset="0.52" stop-color="#951d88"/><stop offset="0.56" stop-color="#7c2b89"/><stop offset="0.58" stop-color="#772a86"/><stop offset="0.61" stop-color="#69267c"/><stop offset="0.65" stop-color="#51206b"/><stop offset="0.68" stop-color="#381a5a"/><stop offset="0.79" stop-color="#333b8a"/><stop offset="0.89" stop-color="#4981c3"/><stop offset="1" stop-color="#55967b"/></linearGradient><linearGradient id="Gradient_bez_nazwy_5-2" x1="189.01" y1="-2122.2" x2="813.93" y2="-2122.2" xlink:href="#Gradient_bez_nazwy_5"/></defs><title>fon7</title><rect class="cls-1" y="1.93" width="1800" height="730"/><path class="cls-2" d="M951.26-.09H938.9c46.64,73.56,118,119.14,114.51,249.44-1.69,63.11-19.86,105.42-43.88,140.35,42.08-36.84,84.24-73.61,86.27-149.49C1099.16,115,987.7,90.29,951.26-.09Z" transform="translate(-0.9 1.09)"/><path class="cls-3" d="M689.52.41a312.09,312.09,0,0,0-2.44,31.89c-1.46,54.45,10.16,94.1,27.57,127.18,0-1.1,0-2.17.05-3.28C716.65,83.52,740.44,38.41,769.86.41Z" transform="translate(-0.9 1.09)"/><path class="cls-4" d="M282.2,265.83c-4.2,21.05-3.53,39.53.41,56.28,59.95-107.19,177.17-111,208.79-269.35.19-.94.34-1.86.52-2.79C457.94,165.3,307.37,139.85,282.2,265.83Z" transform="translate(-0.9 1.09)"/><path class="cls-5" d="M447.34,2.49c0-.87.07-1.72.1-2.58H445a274,274,0,0,0-7.62,58.88C432.3,250,596.23,254.36,591.11,445.54c-.27,9.88-1,19.22-2.05,28.11,6.68-21.49,10.94-46,11.71-75C606,202.78,442.09,198.39,447.34,2.49Z" transform="translate(-0.9 1.09)"/><path class="cls-5" d="M609.56-.09C628,33.66,640.41,74.13,638.9,130.4c-1,37.49-7.87,67.57-18.27,93.2C577.13,166.51,526.31,117.7,527.51,10a280.15,280.15,0,0,0-5.83,51C516.56,252.23,680.49,256.62,675.37,447.8c0,1.81-.14,3.56-.22,5.34A294.11,294.11,0,0,0,681,400.83c2.24-83.54-26.29-132.26-59.33-175.86,32.13-38.66,59.1-83.68,61.13-159.42.66-24.74-1.52-46.35-5.78-65.64Z" transform="translate(-0.9 1.09)"/><path class="cls-6" d="M551.26-.09c13.66,25.92,22.29,56.72,21.21,96.93-2.11,78.82-39.51,119.58-79,158.1q5.28,7,10.73,13.77c44.08-42.9,90.31-83.48,92.66-171.37C598,56.88,589.22,25.93,575.4-.09Z" transform="translate(-0.9 1.09)"/><path class="cls-7" d="M573-.09c-.77,131.81,160.33,137.27,156.74,271.29-3.62,135.17-167.56,130.78-171.18,266-.7,26.26,4.94,47.57,14.42,65.88,21-145.88,166.46-151.7,170.87-316.27,4-149.09-114.57-174.28-146.7-286.85Z" transform="translate(-0.9 1.09)"/><path class="cls-8" d="M1219.18-.09c-26.82,35.62-47.79,78.45-49.57,144.91-.92,34.48,3.67,62.86,11.76,87.38C1229.72,156,1317.49,124.12,1323.2-.09Z" transform="translate(-0.9 1.09)"/><path class="cls-9" d="M1029.92-.09c.47,47.88,12.88,83.1,30.48,112.81,5.41-48.32,21.45-83.23,41.7-112.81Z" transform="translate(-0.9 1.09)"/><path class="cls-10" d="M1555.48,458.31a157.08,157.08,0,0,0,6.43-41.54c3.84-143.28-160.09-147.67-156.25-290.95,0-1.83.14-3.62.24-5.41a168.17,168.17,0,0,0-6.47,42.93C1395.52,309.51,1555.33,315.62,1555.48,458.31Z" transform="translate(-0.9 1.09)"/><path class="cls-11" d="M1395.7-1.09c-11.64,26.75-19.37,58.45-20.44,98.55a293,293,0,0,0,3.28,54C1381.12,80,1406.1,36.21,1436.38-1.09Z" transform="translate(-0.9 1.09)"/><path class="cls-12" d="M1544.75-1.09c42.29,52.6,88,101.41,85.25,203.77-.14,5.33-.42,10.48-.81,15.52,6.13-20.73,10-44.3,10.73-71.82,1.77-66-15.67-110.29-39.38-147.47Z" transform="translate(-0.9 1.09)"/><path class="cls-12" d="M1716.19-1.09c7.82,10.16,15.44,20.56,22.52,31.57-6.13-10.87-12.58-21.3-19.14-31.57Z" transform="translate(-0.9 1.09)"/><path class="cls-13" d="M1240.19.91C1222,29,1209.21,63.1,1208,110.21c-1.35,50.42,11.33,86.65,29.92,116.9,49.21-60.92,135.26-87.63,138.05-191.65A163.8,163.8,0,0,0,1373.35.91Z" transform="translate(-0.9 1.09)"/><path class="cls-14" d="M1062.77-.09c17.42,23.53,29.13,51.66,28.11,90-3.73,139.2-167.67,134.81-171.4,274s160.2,143.6,156.47,282.82a150.89,150.89,0,0,1-5.14,36.05c30.87-24.77,56.33-53.92,57.63-102.63,3.37-125.6-160.56-130-157.2-255.59s167.3-121.21,170.66-246.8c.88-32.8-9.65-57.32-25.63-77.9Z" transform="translate(-0.9 1.09)"/><path class="cls-15" d="M1476.1-1.09c7,23.26,10.89,50,10,82,0,.51,0,1-.06,1.5,5.38-19.62,8.78-41.73,9.47-67.28q.21-8.32,0-16.19Z" transform="translate(-0.9 1.09)"/><path class="cls-16" d="M1486.07,82.38c-35.15,128.3-155.54,149-164.55,310.31C1357.37,265.85,1480.91,247,1486.07,82.38Z" transform="translate(-0.9 1.09)"/><path class="cls-17" d="M740.69,359.29c5-184.77,158.24-186.87,173.14-359.38H861.18c-42,114.4-154.67,139.51-159,301.41-2.51,93.73,33.71,143.62,71.59,191.62C753.38,458.73,739.13,417.75,740.69,359.29Z" transform="translate(-0.9 1.09)"/><path class="cls-18" d="M801.69-.09c-48.22,92.25-142.87,125.9-146.84,274-.05,1.82-.05,3.59-.07,5.38C681.75,152.37,792.62,128.75,818-.09Z" transform="translate(-0.9 1.09)"/><rect class="cls-19" y="1.93" width="1800" height="730"/></svg>