<svg id="Слой_1" data-name="Слой 1" xmlns="http://www.w3.org/2000/svg" xmlns:xlink="http://www.w3.org/1999/xlink" viewBox="0 0 109.82 41.26"><defs><style>.cls-1{fill:url(#Gradient_bez_nazwy_5);}</style><linearGradient id="Gradient_bez_nazwy_5" x1="-3136.05" y1="-10253.43" x2="-3094.79" y2="-10253.43" gradientTransform="translate(10308.74 -3093.63) rotate(-90)" gradientUnits="userSpaceOnUse"><stop offset="0" stop-color="#e1ac52"/><stop offset="0.09" stop-color="#d79146"/><stop offset="0.13" stop-color="#d07845"/><stop offset="0.18" stop-color="#c96045"/><stop offset="0.24" stop-color="#af5647"/><stop offset="0.31" stop-color="#974c49"/><stop offset="0.39" stop-color="#ac5272"/><stop offset="0.45" stop-color="#b8568b"/><stop offset="0.51" stop-color="#925589"/><stop offset="0.56" stop-color="#795488"/><stop offset="0.59" stop-color="#745184"/><stop offset="0.62" stop-color="#664a78"/><stop offset="0.66" stop-color="#4e3d64"/><stop offset="0.68" stop-color="#403658"/><stop offset="0.79" stop-color="#495185"/><stop offset="0.89" stop-color="#4d7fb9"/><stop offset="1" stop-color="#559277"/></linearGradient></defs><title>gull</title><path class="cls-1" d="M5.31,42.41a40.83,40.83,0,0,1-4.92-.17c19.09-4.63,22.72-19.33,46.32-21C29.49,25.57,27.28,41.82,5.31,42.41ZM54.7,20.17a36.59,36.59,0,0,0-8,1c.89-.06,1.81-.11,2.75-.13,19.15-.52,26.41,7.67,36.82,13.54C77,28.68,71.18,19.73,54.7,20.17ZM50.17,2.49c-21.18.75-23.8,16.21-40,20.9h.6C31.78,22.82,34.25,7.2,50.17,2.49Zm8.76-1.31a33.94,33.94,0,0,0-8.76,1.31h.38c25-.67,25.53,20.23,50.51,19.56a35.62,35.62,0,0,0,9.15-1.37c-.64,0-1.3.08-2,.1C83.86,21.43,83.3.53,58.93,1.18Z" transform="translate(-0.39 -1.17)"/></svg>