<svg id="Слой_1" data-name="Слой 1" xmlns="http://www.w3.org/2000/svg" xmlns:xlink="http://www.w3.org/1999/xlink" viewBox="0 0 141.73 141.73"><defs><style>.cls-1{fill:url(#linear-gradient);}</style><linearGradient id="linear-gradient" x1="36.78" y1="6.91" x2="111.63" y2="136.55" gradientUnits="userSpaceOnUse"><stop offset="0" stop-color="#e1ac52"/><stop offset="0.42" stop-color="#965066"/><stop offset="0.8" stop-color="#5d6766"/><stop offset="1" stop-color="#447166"/></linearGradient></defs><title>logo</title><path class="cls-1" d="M73,9.43c-2.47,2.3-3.87,5.44-1.29,9.84s12.38,3.87,11.84-3.77S76,6.58,73,9.43Zm7.56,5.86c.29,4.18-5.06,4.46-6.47,2.06a3.9,3.9,0,0,1,.7-5.38C76.43,10.41,80.23,11.11,80.52,15.29ZM3.87,54.53c.54,0,2.48.74,3.77-.21s.43-.94.65-3.87A65.07,65.07,0,0,1,13,33.81c2.48-5.34,12.7-17.06,26.8-23.44S70.6,3.78,85.88,7.44s31.21,16.64,39.17,29.3,1.18,37.47-3.34,47.41-25.07,21.56-40.57,22.19S52.52,98,47.35,91.16,37.45,67.41,43.91,56,61.66,43.65,66.18,43.34s8.18,3.87,9.15,4.18,3.45-1.25,2.91-3.56-9.37-9-27.66-.52S34.65,69.39,35.73,77,41.11,105.19,68,110s45.74-9.73,51.55-16.22S134,76.3,133.66,54.53s-7.21-28.25-25.07-42.07S62.2-2.29,46.71,2.94,11.52,21.46,6.78,34,3.34,54.53,3.87,54.53ZM11.3,76.2c-1.08-4.5-4.92-6.56-8.61-4.82s-3.12,5.86-.86,9.53S12.38,80.7,11.3,76.2ZM3.72,78.78c-1.15-1.87-1.48-4,.44-4.86s3.85.16,4.4,2.46S4.88,80.66,3.72,78.78ZM83.4,69c2-14.34-11.84-14.83-17.54-13.5-14,3.24-12.37,16.53-7,21.66S81.36,83.31,83.4,69ZM67.15,75.36a7.61,7.61,0,0,1-6.24-6.8c-.75-5.65,2.26-7.85,5.81-9.21,2.41-.92,8.72-.32,10.87,2.4s1,8.27,1,8.27S77.27,67.83,77,67.83s-1.73.41-1.62.83,1.62,3.46,1.4,4-1.61,2.09-1.94,1.67-2.79-7-3.44-7.11-2-.11-1.94.52,3.66,7.22,3.12,7.75-1.93.94-2.26.2-2.58-6.69-2.9-6.8-2.37.52-2.15,1.26S67.58,75.26,67.15,75.36Zm15.07,41.13c-3.66,2.09-4.84,6.28-2.91,11.41s13.35,6.07,15-1.89S87.14,113.68,82.22,116.49Zm9.24,8.71c-1,5.1-8.35,4.5-9.59,1.21s-.48-6,1.86-7.31C86.88,117.29,92.49,120.1,91.46,125.2ZM51.66,79.65c-3.77,1.78-3.12,5.86-.86,9.52s10.54-.2,9.47-4.7S55.34,77.91,51.66,79.65Zm1,7.4c-1.16-1.87-1.49-4,.44-4.87s3.85.17,4.4,2.46S53.84,88.92,52.69,87.05Zm63.54-45.18c-.11-4.71-5.21-7.92-8.18-5.76-2.59,1.89-3.66,5.13-1.4,8.17S116.33,46.58,116.23,41.87Zm-6.79-3.42c1.48-1.08,4,.52,4.07,2.86s-3.64,2.71-4.77,1.2A2.75,2.75,0,0,1,109.44,38.45ZM27.78,61.61a4.21,4.21,0,0,0-1.06,6.21C28.44,70.13,34.09,69.57,34,66S30,60,27.78,61.61Zm4.16,4c0,1.78-2.77,2.06-3.63.91a2.11,2.11,0,0,1,.53-3.1C30,62.56,31.9,63.78,31.94,65.57ZM133.88,84.78c-3.23,1.36-4,6.38-2.37,9.73s10.11,2.51,10.22-3.66S136.78,83.56,133.88,84.78Zm-.26,7.89c-.89-1.85-.48-4.62,1.3-5.37,1.6-.68,4.39-.06,4.33,3.35S134.51,94.51,133.62,92.67Zm5.1-76.23c-.54-7.64-7.48-8.92-10.55-6.07-2.47,2.3-3.87,5.44-1.29,9.84S139.26,24.08,138.72,16.44ZM130,12.91c1.68-1.56,5.47-.86,5.77,3.32s-5.06,4.46-6.48,2.06A3.92,3.92,0,0,1,130,12.91ZM12.38,117.22c-3.66,2.1-4.85,6.28-2.91,11.41s13.35,6.07,15-1.88S17.29,114.41,12.38,117.22Zm9.23,8.71c-1,5.1-8.34,4.5-9.58,1.21s-.49-6,1.86-7.31C17,118,22.65,120.84,21.61,125.93Zm111.73-16.66c-1,0-1.72,1.78-2.69,3s-9.69,13.61-19.7,19-28.3,7.22-45.95,2.93-34.54-24-41.22-43.74,1.73-32,6-39.77S44.23,32.66,56,31.61s30.46-1.88,39,10.68,8,24.17,1.83,35.58-22,9.44-22.6,10-.54,4.19.64,4.5,11.95-.52,18.62-4.29,14.85-13.61,12-34S84.59,26.8,68.55,26.38s-32.07,4-42.94,20.72S15.17,78.39,18.94,91.58s13.45,34,34.44,44.27,43.91,5,58.65-.1S137.1,112,137,111.36,134.31,109.27,133.34,109.27Z" transform="translate(0 0)"/></svg>